<svg width="439" height="406" viewBox="0 0 439 406" fill="none" xmlns="http://www.w3.org/2000/svg">
<g opacity="0.13">
<path d="M16.5562 330.708C10.1349 341.796 4.99811 354.177 1.3626 368.101C1.3626 368.101 0.580392 372.024 0.141226 377.694C-0.297939 383.364 0.427379 395.064 0.427379 395.064C5.20999 376.915 12.9894 344.439 21.5658 331.536C33.0072 314.322 47.5437 301.405 64.3936 291.753C63.0819 288.904 61.8556 286.026 60.7085 283.137C42.8538 295.975 27.7505 311.378 16.5562 330.708Z" fill="#C6D75E"/>
<path d="M21.5656 331.537C12.9892 344.44 3.32358 368.901 1.36236 377.902C-0.645644 387.118 0.647863 396.207 1.36236 405.483C10.5727 374.803 26.7759 350.635 46.1965 334.577C55.7578 326.67 66.3423 320.218 77.7213 314.898C72.5133 307.689 68.1136 299.84 64.3934 291.754C47.5435 301.406 33.0069 314.323 21.5656 331.537Z" fill="#99C21C"/>
<path d="M349.59 268.319C382.28 267.987 412.899 265.378 439.113 257.426V188.734C421.692 232.439 389.297 255.391 349.59 268.319Z" fill="#99C21C"/>
<path d="M372.097 136.026C368.807 164.134 361.542 193.268 347.294 218.205C345.429 221.468 343.446 224.66 341.337 227.768C329.936 244.553 315.787 257.522 300.615 267.539C291.059 273.848 281.096 278.982 271.16 283.165C298.845 280.297 325.556 276.143 349.589 268.319C389.296 255.391 421.691 232.439 439.111 188.734V10.6055C427.191 66.5245 403.129 106.299 372.097 136.026Z" fill="#C6D75E"/>
<path d="M26.6953 184.756C26.6953 184.756 26.9087 194.82 28.8928 209.968C30.7329 224.028 34.0998 242.472 40.243 261.32C47.7307 284.298 59.3399 307.875 77.3361 324.84C79.8869 327.243 82.5144 329.464 85.2043 331.519C89.9661 335.157 94.9254 338.268 99.995 340.92C108.788 345.52 117.916 348.739 126.943 350.936C130.726 351.855 134.489 352.594 138.204 353.181C136.138 352.23 134.075 351.217 132.024 350.14C126.059 347.008 120.196 343.325 114.621 338.999C113.087 337.806 111.572 336.567 110.085 335.275C104.022 330.013 98.3843 323.907 93.433 316.822C85.1595 304.98 79.4784 291.373 75.6542 277.313C69.2065 253.608 68.0419 228.626 68.6446 208.672C98.2468 209.64 133.97 215.432 160.55 234.379C184.647 251.553 197.192 276.657 203.689 299.308C200.576 275.503 191.683 247.95 169.516 227.055C142.423 201.513 101.212 191.299 70.0131 187.265C52.7299 185.031 38.5188 184.691 31.4771 184.691C28.4027 184.691 26.6953 184.756 26.6953 184.756Z" fill="#99C21C"/>
<path d="M117.823 260.061C119.451 261.904 121.046 263.778 122.606 265.659C125.754 269.421 128.807 273.267 131.809 277.147C134.805 281.027 137.743 284.941 140.644 288.897C142.095 290.869 143.527 292.85 144.967 294.846C145.685 295.845 146.385 296.819 147.057 297.8C147.744 298.781 148.419 299.765 149.076 300.76C154.372 308.71 158.993 317.019 162.811 325.559C163.042 326.063 163.262 326.577 163.482 327.091L163.031 327.502C155.504 325.512 148.168 323.11 141.197 320.194C134.053 317.212 127.281 313.673 121.184 309.469C118.137 307.358 115.257 305.101 112.599 302.668C111.269 301.466 109.998 300.208 108.781 298.919C108.18 298.275 107.593 297.617 107.01 296.948L106.149 295.952L105.297 294.907L104.505 293.895L103.724 292.844C103.206 292.134 102.699 291.414 102.21 290.697C101.221 289.239 100.3 287.743 99.4312 286.22C97.6737 283.163 96.1413 279.947 94.8031 276.643C93.451 273.325 92.3221 269.897 91.3414 266.398C90.3711 262.889 89.5624 259.323 88.9119 255.689C87.6255 248.429 86.9206 240.976 86.7292 233.47C86.6306 229.714 86.6355 225.942 86.8028 222.195C86.8049 222.103 86.8143 222.01 86.8202 221.914C86.909 221.92 86.9906 221.925 87.0942 221.924C90.8367 222.117 94.5866 222.463 98.3057 222.908C105.772 223.806 113.134 225.2 120.241 227.166C122.014 227.666 123.772 228.194 125.515 228.765C127.262 229.325 128.976 229.931 130.674 230.586C134.07 231.896 137.382 233.337 140.546 234.994C146.906 238.271 152.737 242.326 157.786 247.19C160.553 249.861 163.099 252.826 165.441 256.036C167.653 259.438 176.483 274.144 177.11 292.132C177.451 301.814 176.919 308.833 176.273 313.572C170.76 306.241 164.74 299.406 158.332 293.075C157.427 292.179 156.514 291.296 155.597 290.424C154.673 289.544 153.749 288.679 152.838 287.849C151 286.172 149.176 284.495 147.333 282.843C143.652 279.521 139.93 276.23 136.161 272.998C132.403 269.77 128.593 266.591 124.71 263.51C122.776 261.966 120.817 260.447 118.838 258.958C116.853 257.485 114.856 256.014 112.778 254.684C114.541 256.405 116.187 258.232 117.823 260.061Z" fill="#C6D75E"/>
<path d="M353.421 9.91937C304.095 20.6221 239.605 42.564 199.779 87.0864C167.191 123.512 156.734 168.792 155.004 207.271C162.302 170.174 178.929 128.311 215.109 97.5742C255.018 63.6593 311.337 49.5241 358.53 43.9373C362.215 75.7554 363.761 115.847 356.689 154.641C352.491 177.638 345.267 200.169 333.654 220.231C326.706 232.233 318.527 242.762 309.549 252.001C307.351 254.267 305.098 256.456 302.809 258.572C294.485 266.247 285.617 272.936 276.508 278.757C273.374 280.758 270.217 282.66 267.043 284.462C272.899 283.016 278.817 281.322 284.741 279.339C298.871 274.594 313.024 268.203 326.453 259.648C334.196 254.716 341.699 249.067 348.815 242.599C352.833 238.947 356.733 235.039 360.482 230.851C386.937 201.274 402.281 161.999 411.114 124.228C418.362 93.26 421.231 63.3156 422.256 40.5872C423.36 16.1105 422.33 0 422.33 0C422.33 0 392.673 1.40368 353.421 9.91937Z" fill="#99C21C"/>
</g>
</svg>
