<svg width="451" height="418" viewBox="0 0 451 418" fill="none" xmlns="http://www.w3.org/2000/svg">
<g opacity="0.12">
<path opacity="0.5" d="M15.6448 340.531C9.03277 351.948 3.74348 364.696 0 379.034V389.125C4.92464 370.438 11.9721 354.67 20.8032 341.384C32.5843 323.659 47.5526 310.358 64.9028 300.419C63.5521 297.486 62.2895 294.522 61.1083 291.547C42.7234 304.767 27.1716 320.627 15.6448 340.531Z" fill="#EEF3CF"/>
<path d="M20.8032 341.382C11.9721 354.669 4.92464 370.436 0 389.124V417.525C9.48384 385.933 26.1682 361.048 46.1656 344.513C56.0108 336.371 66.9096 329.727 78.6265 324.249C73.2639 316.827 68.7336 308.744 64.9028 300.418C47.5526 310.357 32.5843 323.658 20.8032 341.382Z" fill="white"/>
<path d="M358.569 276.288C392.23 275.946 423.759 273.259 450.751 265.071V194.34C432.813 239.342 399.456 262.976 358.569 276.288Z" fill="white"/>
<path opacity="0.5" d="M381.747 140.067C378.359 169.01 370.878 199.009 356.206 224.686C354.287 228.046 352.245 231.334 350.073 234.533C338.333 251.817 323.764 265.171 308.142 275.485C298.302 281.982 288.043 287.268 277.812 291.576C306.319 288.623 333.823 284.345 358.57 276.288C399.456 262.977 432.813 239.343 450.751 194.341V10.9219C438.477 68.5015 413.7 109.457 381.747 140.067Z" fill="#EEF3CF"/>
<path d="M26.0842 190.242C26.0842 190.242 26.304 200.605 28.3469 216.203C30.2417 230.681 33.7086 249.672 40.0342 269.08C47.7443 292.741 59.6983 317.017 78.2289 334.486C80.8554 336.961 83.561 339.248 86.3307 341.363C91.234 345.11 96.3405 348.313 101.561 351.044C110.615 355.78 120.014 359.096 129.308 361.357C133.204 362.304 137.079 363.065 140.904 363.669C138.777 362.69 136.653 361.646 134.541 360.538C128.399 357.313 122.361 353.52 116.621 349.066C115.042 347.837 113.482 346.561 111.951 345.231C105.708 339.813 99.9021 333.526 94.8038 326.23C86.2846 314.037 80.4348 300.025 76.4971 285.548C69.8579 261.139 68.6586 235.415 69.2793 214.868C99.7605 215.865 136.544 221.829 163.914 241.339C188.727 259.023 201.644 284.873 208.334 308.196C205.128 283.684 195.971 255.313 173.146 233.797C145.249 207.497 102.814 196.98 70.6884 192.826C52.892 190.526 38.2588 190.176 31.0081 190.176C27.8424 190.176 26.0842 190.242 26.0842 190.242Z" fill="white"/>
<path opacity="0.5" d="M119.919 267.783C121.595 269.681 123.238 271.611 124.844 273.548C128.085 277.422 131.229 281.382 134.321 285.377C137.405 289.372 140.43 293.403 143.418 297.477C144.911 299.506 146.387 301.546 147.869 303.601C148.608 304.63 149.329 305.633 150.021 306.643C150.728 307.653 151.424 308.667 152.101 309.691C157.554 317.878 162.312 326.433 166.243 335.227C166.481 335.746 166.707 336.275 166.934 336.805L166.469 337.227C158.719 335.179 151.165 332.706 143.987 329.702C136.631 326.632 129.658 322.988 123.379 318.659C120.242 316.485 117.277 314.162 114.54 311.656C113.171 310.418 111.862 309.123 110.609 307.796C109.99 307.132 109.385 306.455 108.785 305.766L107.899 304.741L107.021 303.665L106.205 302.622L105.401 301.54C104.868 300.809 104.346 300.067 103.842 299.33C102.824 297.828 101.876 296.288 100.981 294.72C99.1713 291.572 97.5934 288.26 96.2154 284.859C94.8232 281.441 93.6607 277.912 92.6509 274.309C91.6519 270.695 90.8191 267.024 90.1493 263.282C88.8247 255.806 88.0988 248.132 87.9018 240.403C87.8002 236.535 87.8053 232.651 87.9776 228.793C87.9798 228.698 87.9895 228.603 87.9955 228.504C88.087 228.51 88.171 228.515 88.2776 228.514C92.1313 228.713 95.9925 229.069 99.8221 229.528C107.51 230.452 115.091 231.888 122.409 233.911C124.235 234.427 126.045 234.971 127.84 235.558C129.638 236.135 131.403 236.759 133.152 237.433C136.648 238.783 140.058 240.266 143.316 241.973C149.866 245.347 155.87 249.522 161.069 254.531C163.918 257.281 166.54 260.334 168.951 263.639C171.229 267.142 180.321 282.285 180.967 300.807C181.318 310.776 180.77 318.004 180.104 322.884C174.428 315.335 168.229 308.297 161.631 301.778C160.699 300.855 159.759 299.946 158.815 299.048C157.863 298.142 156.912 297.251 155.974 296.397C154.081 294.67 152.203 292.943 150.305 291.242C146.515 287.821 142.683 284.433 138.802 281.105C134.932 277.781 131.009 274.508 127.011 271.335C125.019 269.745 123.001 268.181 120.964 266.648C118.92 265.131 116.864 263.617 114.724 262.247C116.539 264.02 118.235 265.9 119.919 267.783Z" fill="#EEF3CF"/>
<path d="M362.512 10.2139C311.721 21.2345 245.316 43.828 204.308 89.6726C170.752 127.18 159.984 173.804 158.203 213.426C165.718 175.227 182.839 132.121 220.093 100.472C261.187 65.5498 319.179 50.9948 367.773 45.2421C371.568 78.0051 373.16 119.287 365.878 159.233C361.555 182.913 354.116 206.114 342.158 226.771C335.004 239.13 326.582 249.971 317.338 259.485C315.074 261.818 312.755 264.072 310.397 266.251C301.826 274.153 292.695 281.042 283.315 287.035C280.088 289.096 276.837 291.054 273.569 292.909C279.599 291.42 285.692 289.676 291.792 287.635C306.342 282.749 320.916 276.167 334.743 267.358C342.716 262.28 350.442 256.463 357.769 249.803C361.907 246.043 365.922 242.019 369.783 237.706C397.023 207.251 412.824 166.809 421.919 127.917C429.382 96.0295 432.336 65.1959 433.392 41.7925C434.528 16.5889 433.468 0 433.468 0C433.468 0 402.93 1.44536 362.512 10.2139Z" fill="white"/>
</g>
</svg>
