<svg width="18" height="18" viewBox="0 0 18 18" fill="none" xmlns="http://www.w3.org/2000/svg">
<path fill-rule="evenodd" clip-rule="evenodd" d="M0 5C0 2.23858 2.23858 0 5 0H13C15.7614 0 18 2.23858 18 5V13C18 15.7614 15.7614 18 13 18H5C2.23858 18 0 15.7614 0 13V5ZM15.4308 3.85603C15.4308 4.56611 14.8552 5.14174 14.1451 5.14174C13.435 5.14174 12.8594 4.56611 12.8594 3.85603C12.8594 3.14595 13.435 2.57031 14.1451 2.57031C14.8552 2.57031 15.4308 3.14595 15.4308 3.85603ZM9.00034 13.3679C11.4146 13.3679 13.3718 11.4107 13.3718 8.99643C13.3718 6.58216 11.4146 4.625 9.00034 4.625C6.58606 4.625 4.62891 6.58216 4.62891 8.99643C4.62891 11.4107 6.58606 13.3679 9.00034 13.3679Z" fill="#567B00"/>
</svg>
