<svg width="23" height="16" viewBox="0 0 23 16" fill="none" xmlns="http://www.w3.org/2000/svg">
<path fill-rule="evenodd" clip-rule="evenodd" d="M16.1451 4.14174C16.8552 4.14174 17.4308 3.56611 17.4308 2.85603C17.4308 2.14595 16.8552 1.57031 16.1451 1.57031C15.435 1.57031 14.8594 2.14595 14.8594 2.85603C14.8594 3.56611 15.435 4.14174 16.1451 4.14174Z" fill="#5C7849"/>
<path d="M21.6307 2.84714C21.3838 1.92934 20.6602 1.20584 19.7425 0.958706C18.0661 0.5 11.36 0.5 11.36 0.5C11.36 0.5 4.65427 0.5 2.9778 0.941315C2.07778 1.18819 1.3365 1.92947 1.08962 2.84714C0.648438 4.52348 0.648438 8 0.648438 8C0.648438 8 0.648438 11.494 1.08962 13.1529C1.33676 14.0705 2.06012 14.794 2.97793 15.0412C4.67192 15.5 11.3603 15.5 11.3603 15.5C11.3603 15.5 18.0661 15.5 19.7425 15.0587C20.6603 14.8117 21.3838 14.0882 21.631 13.1705C22.072 11.494 22.072 8.01765 22.072 8.01765C22.072 8.01765 22.0897 4.52348 21.6307 2.84714ZM9.22499 11.2117V4.78827L14.8014 8L9.22499 11.2117Z" fill="#567B00"/>
</svg>
