<svg width="386" height="386" viewBox="0 0 386 386" fill="none" xmlns="http://www.w3.org/2000/svg">
<circle cx="193" cy="193" r="192.5" stroke="white"/>
<path d="M28.4785 90.2627C31.5329 92.2229 35.2455 91.885 36.7711 89.5079C38.2966 87.1309 37.0573 83.6149 34.003 81.6547C30.9487 79.6945 27.236 80.0324 25.7104 82.4095C24.1849 84.7865 25.4242 88.3025 28.4785 90.2627Z" fill="#101820"/>
<path d="M34.7649 82.6869L34.2837 82.1483C34.4505 81.9966 38.4059 78.4571 41.7828 80.6244C41.7834 80.6248 41.7828 80.6244 41.7834 80.6248L41.3873 81.2421L41.3867 81.2417C38.4739 79.3723 34.8015 82.6534 34.7649 82.6869Z" fill="#101820"/>
<path d="M41.1668 81.7797C41.5857 82.0486 42.147 81.9211 42.4204 81.4951C42.6939 81.069 42.5759 80.5057 42.157 80.2368C41.738 79.968 41.1768 80.0954 40.9033 80.5214C40.6299 80.9475 40.7479 81.5108 41.1668 81.7797Z" fill="#101820"/>
<path d="M32.7481 81.3959C32.7634 81.3487 34.2159 76.6429 31.3036 74.7739C31.3036 74.7739 31.3036 74.7739 31.303 74.7736L31.6992 74.1562L31.6998 74.1566C35.0774 76.3243 33.5066 81.3942 33.4382 81.609L32.7481 81.3959Z" fill="#101820"/>
<path d="M30.909 75.1977C31.3279 75.4665 31.8892 75.3391 32.1626 74.913C32.436 74.487 32.3181 73.9236 31.8992 73.6548C31.4802 73.3859 30.919 73.5134 30.6455 73.9394C30.3721 74.3655 30.49 74.9288 30.909 75.1977Z" fill="#101820"/>
<path opacity="0.4" d="M30.2562 82.8909C30.8672 82.966 31.4164 82.6315 31.4828 82.1437C31.5493 81.6559 31.1079 81.1995 30.4969 81.1244C29.8859 81.0492 29.3367 81.3837 29.2703 81.8716C29.2038 82.3594 29.6452 82.8157 30.2562 82.8909Z" fill="white"/>
<path opacity="0.4" d="M35.7969 86.0575C36.2127 85.7938 36.2881 85.1552 35.9652 84.6311C35.6424 84.1069 35.0437 83.8958 34.6279 84.1594C34.2121 84.423 34.1367 85.0616 34.4595 85.5858C34.7823 86.1099 35.3811 86.3211 35.7969 86.0575Z" fill="white"/>
<path d="M12.7216 114.816C19.6936 119.29 29.6267 116.246 34.9079 108.017C40.1891 99.7884 38.8185 89.4903 31.8465 85.0158C24.8746 80.5413 14.9414 83.585 9.66021 91.814C4.37902 100.043 5.74966 110.341 12.7216 114.816Z" fill="#E1251B"/>
<path d="M31.5611 96.7319C32.5668 97.3773 33.9142 97.0714 34.5706 96.0486C35.227 95.0258 34.9438 93.6735 33.9381 93.028C32.9325 92.3826 31.5851 92.6885 30.9287 93.7113C30.2723 94.7341 30.5554 96.0864 31.5611 96.7319Z" fill="#101820"/>
<path d="M25.4726 102.957C26.0732 103.342 26.8779 103.16 27.2699 102.549C27.6619 101.938 27.4928 101.13 26.8922 100.745C26.2916 100.359 25.4869 100.542 25.0949 101.153C24.7029 101.764 24.872 102.571 25.4726 102.957Z" fill="#101820"/>
<path d="M31.0599 106.031C32.2515 106.796 33.8479 106.433 34.6257 105.221C35.4034 104.01 35.0679 102.407 33.8763 101.643C32.6847 100.878 31.0883 101.24 30.3105 102.452C29.5328 103.664 29.8683 105.266 31.0599 106.031Z" fill="#101820"/>
<path d="M21.6445 112.929C23.0504 113.831 24.934 113.404 25.8517 111.974C26.7693 110.544 26.3735 108.653 24.9676 107.751C23.5616 106.849 21.678 107.276 20.7603 108.706C19.8427 110.136 20.2385 112.027 21.6445 112.929Z" fill="#101820"/>
<path d="M21.3111 90.1576C22.3168 90.8031 23.6642 90.4972 24.3206 89.4744C24.977 88.4516 24.6938 87.0992 23.6881 86.4538C22.6825 85.8084 21.3351 86.1143 20.6787 87.1371C20.0223 88.1599 20.3054 89.5122 21.3111 90.1576Z" fill="#101820"/>
<path d="M18.1913 98.285C18.7919 98.6704 19.5966 98.4877 19.9887 97.8769C20.3807 97.2661 20.2116 96.4584 19.611 96.0729C19.0103 95.6875 18.2056 95.8702 17.8136 96.481C17.4216 97.0918 17.5907 97.8995 18.1913 98.285Z" fill="#101820"/>
<path d="M13.0677 94.4881C14.2593 95.2528 15.8558 94.8904 16.6335 93.6785C17.4113 92.4666 17.0758 90.8643 15.8842 90.0995C14.6925 89.3348 13.0961 89.6973 12.3183 90.9091C11.5406 92.121 11.8761 93.7233 13.0677 94.4881Z" fill="#101820"/>
<path d="M10.7187 105.921C12.1246 106.823 14.0083 106.396 14.9259 104.966C15.8436 103.536 15.4477 101.645 14.0418 100.743C12.6358 99.8408 10.7522 100.268 9.83455 101.698C8.91691 103.128 9.31275 105.019 10.7187 105.921Z" fill="#101820"/>
<path d="M13.8137 115.436C13.4439 115.251 13.08 115.044 12.7219 114.814C12.3698 114.588 12.0296 114.344 11.7074 114.084L31.14 86.1154L13.8137 115.436Z" fill="#101820"/>
<path d="M13.8137 115.436C13.4439 115.251 13.08 115.044 12.7219 114.814C12.3698 114.588 12.0296 114.344 11.7074 114.084L31.14 86.1154L13.8137 115.436Z" fill="#101820"/>
</svg>
