<svg width="131" height="131" viewBox="0 0 131 131" fill="none" xmlns="http://www.w3.org/2000/svg">
<path opacity="0.1" d="M65.2266 130.004C101.125 130.004 130.227 100.902 130.227 65.0039C130.227 29.1054 101.125 0.00390625 65.2266 0.00390625C29.3281 0.00390625 0.226562 29.1054 0.226562 65.0039C0.226562 100.902 29.3281 130.004 65.2266 130.004Z" fill="white"/>
<path d="M27.3367 48.8286L28.6121 49.2467L26.6218 55.2368L17.6797 52.3056L19.6243 46.4531L20.8997 46.8713L19.3989 51.3881L21.8113 52.1787L23.1931 48.0202L24.4755 48.4405L23.0939 52.599L25.7902 53.483L27.3367 48.8286Z" fill="white"/>
<path d="M25.8341 44.2213C26.266 44.4834 26.7103 44.6511 27.1672 44.7244C27.624 44.7974 28.0604 44.7945 28.4768 44.7159C28.893 44.6369 29.2716 44.4871 29.6126 44.2664C29.9535 44.0458 30.2255 43.7705 30.4286 43.4404C30.6163 43.1351 30.7408 42.8325 30.8023 42.533C30.8642 42.2335 30.8732 41.9429 30.8294 41.6613C30.7856 41.3803 30.6975 41.1156 30.5645 40.868C30.4318 40.6205 30.2672 40.3916 30.0711 40.1823L30.8509 38.9136C31.1748 39.2405 31.4447 39.6081 31.661 40.0167C31.8774 40.4254 32.0212 40.8567 32.0929 41.3107C32.1643 41.7647 32.1558 42.2282 32.0674 42.7012C31.979 43.1744 31.794 43.6397 31.5124 44.098C31.2005 44.6052 30.7994 45.026 30.3089 45.3598C29.8184 45.6941 29.2819 45.9219 28.699 46.0442C28.1164 46.1665 27.5146 46.181 26.8935 46.0874C26.2724 45.9941 25.6733 45.7721 25.0959 45.422C24.5271 45.0766 24.0567 44.65 23.6851 44.1412C23.3135 43.6329 23.0496 43.0929 22.893 42.5224C22.7364 41.9516 22.6958 41.3734 22.7709 40.7874C22.8461 40.2015 23.0396 39.655 23.3515 39.1475C23.6203 38.7101 23.9458 38.3457 24.328 38.0533C24.71 37.7615 25.118 37.5474 25.5522 37.4114C25.9865 37.2753 26.4367 37.2089 26.9028 37.211C27.3689 37.2136 27.8209 37.2853 28.2589 37.4261L27.4788 38.6948C27.2017 38.6173 26.92 38.5767 26.6341 38.573C26.3485 38.5698 26.0717 38.6115 25.8044 38.6985C25.5371 38.7855 25.2865 38.9194 25.0527 39.1003C24.8188 39.2814 24.6131 39.5163 24.4355 39.805C24.2324 40.1351 24.109 40.5005 24.065 40.9015C24.0209 41.3023 24.0586 41.7046 24.1783 42.1085C24.2977 42.5121 24.4955 42.9 24.7718 43.2712C25.0481 43.6426 25.4022 43.9593 25.8341 44.2213Z" fill="white"/>
<path d="M27.5859 33.2799L32.5375 28.2227L33.5005 29.1528L31.5155 31.1797L37.3037 36.7701L36.3163 37.7785L30.5283 32.1882L28.5487 34.2101L27.5859 33.2799Z" fill="white"/>
<path d="M45.1899 29.0446L45.9398 30.1514L40.6708 33.6729L35.4141 25.913L40.5617 22.4727L41.3116 23.5794L37.3388 26.2346L38.7567 28.328L42.4148 25.8835L43.1686 26.996L39.5106 29.4408L41.0958 31.7807L45.1899 29.0446Z" fill="white"/>
<path d="M46.8622 24.5184C47.0419 24.9882 47.2898 25.391 47.6057 25.7269C47.9216 26.0628 48.2683 26.3259 48.646 26.5168C49.0234 26.7079 49.415 26.82 49.8208 26.8532C50.2264 26.8862 50.6113 26.834 50.9752 26.6966C51.3118 26.5695 51.5969 26.4066 51.8305 26.2073C52.0638 26.008 52.2501 25.7839 52.3892 25.5347C52.5283 25.2858 52.6217 25.023 52.6695 24.7464C52.717 24.4699 52.7282 24.1891 52.7024 23.9041L54.1013 23.3762C54.1557 23.8313 54.1422 24.2864 54.0612 24.7409C53.98 25.1954 53.8276 25.6241 53.6041 26.0264C53.3806 26.4287 53.0881 26.7899 52.7263 27.11C52.3645 27.4301 51.9313 27.6853 51.4265 27.8759C50.8669 28.0871 50.2901 28.1757 49.6966 28.1409C49.1028 28.1066 48.5382 27.9603 48.0023 27.7022C47.4661 27.4443 46.9817 27.0894 46.5485 26.6376C46.1153 26.1857 45.7787 25.6457 45.5385 25.0177C45.3017 24.3987 45.1931 23.7754 45.2133 23.1474C45.2332 22.5191 45.3574 21.932 45.5857 21.3857C45.814 20.8394 46.1386 20.3575 46.5594 19.9401C46.9801 19.5228 47.4703 19.2085 48.0299 18.9973C48.5119 18.8154 48.9942 18.7253 49.4765 18.7266C49.9586 18.7284 50.4133 18.8075 50.8401 18.9644C51.2672 19.1213 51.6643 19.3425 52.0311 19.628C52.398 19.9135 52.7109 20.2452 52.97 20.6233L51.5711 21.1511C51.3999 20.9212 51.2024 20.7176 50.9787 20.541C50.7549 20.3643 50.5104 20.2288 50.2455 20.135C49.9803 20.0411 49.6998 19.9947 49.4033 19.9952C49.107 19.996 48.7994 20.0564 48.4811 20.1766C48.117 20.314 47.7942 20.5278 47.512 20.8178C47.2299 21.1078 47.0114 21.4485 46.8569 21.8405C46.7022 22.2325 46.6196 22.6591 46.6087 23.1208C46.5978 23.5824 46.6825 24.0483 46.8622 24.5184Z" fill="white"/>
<path d="M54.9648 16.9108L62.0001 15.9414L62.1845 17.2628L59.3648 17.6514L60.4743 25.594L59.0715 25.7873L57.9622 17.8447L55.1496 18.2322L54.9648 16.9108Z" fill="white"/>
<path d="M70.8677 20.6147C71.1053 20.7721 71.3158 20.9662 71.4995 21.1971C71.6558 21.3972 71.793 21.6443 71.9112 21.9385C72.0293 22.2327 72.0733 22.5873 72.0439 23.0018C72.0184 23.3587 71.9202 23.692 71.7492 24.002C71.578 24.3126 71.3492 24.58 71.0625 24.8041C70.7756 25.0287 70.4462 25.2016 70.074 25.3234C69.7019 25.445 69.3021 25.4906 68.8751 25.4605L65.0742 25.1927L65.7405 15.8633L69.4686 16.1259C69.8373 16.152 70.1808 16.2453 70.4987 16.4059C70.8165 16.5662 71.0883 16.7734 71.3142 17.0265C71.5401 17.2799 71.711 17.567 71.8273 17.8876C71.9433 18.2084 71.9887 18.5472 71.9632 18.9039C71.9422 19.1979 71.8713 19.4536 71.7511 19.6703C71.6306 19.8871 71.5072 20.0637 71.3803 20.2003C71.2269 20.3687 71.0559 20.5071 70.8677 20.6147ZM68.9701 24.1299C69.1885 24.1455 69.3977 24.1202 69.5976 24.0542C69.7975 23.9883 69.9713 23.8939 70.1192 23.7711C70.267 23.6482 70.3873 23.5006 70.4802 23.3276C70.5728 23.1552 70.6267 22.9649 70.6416 22.7576C70.6564 22.5504 70.6301 22.3548 70.5627 22.1705C70.4953 21.9867 70.3974 21.8233 70.2683 21.6809C70.1396 21.5385 69.9806 21.4209 69.7924 21.3276C69.6037 21.2343 69.4004 21.18 69.1819 21.1647L66.7937 20.9965L66.5819 23.9614L68.9701 24.1299ZM66.8784 19.8106L69.1938 19.9735C69.5724 20.0002 69.8994 19.8973 70.1746 19.6645C70.4496 19.432 70.5993 19.147 70.6235 18.8095C70.6474 18.4721 70.5386 18.1689 70.297 17.8997C70.0549 17.6308 69.7473 17.4831 69.3735 17.4568L67.0581 17.2938L66.8784 19.8106Z" fill="white"/>
<path d="M80.3211 26.6324L79.9368 27.9108L73.8516 26.1064L76.5452 17.1445L82.4906 18.9073L82.1065 20.1854L77.5178 18.825L76.7913 21.2427L81.0161 22.4955L80.6298 23.7805L76.4051 22.5279L75.5928 25.2306L80.3211 26.6324Z" fill="white"/>
<path d="M92.905 24.2104L88.2141 32.3202L86.9798 31.616L89.0271 28.0765L85.2675 25.9312L83.2201 29.4707L81.9922 28.7699L86.683 20.6602L87.911 21.3609L85.9401 24.7683L89.6998 26.9136L91.6707 23.5062L92.905 24.2104Z" fill="white"/>
<path d="M101.959 32.0297L95.4375 38.7762L94.4108 37.797L97.2571 34.8526L94.1294 31.87L91.2831 34.8141L90.2617 33.8399L96.7836 27.0938L97.805 28.0677L95.0649 30.9024L98.1925 33.885L100.933 31.0506L101.959 32.0297Z" fill="white"/>
<path d="M105.464 45.3408C104.889 45.6948 104.292 45.9208 103.671 46.0183C103.051 46.1161 102.449 46.1059 101.865 45.9875C101.282 45.8691 100.744 45.6445 100.251 45.3139C99.7582 44.9832 99.3542 44.5651 99.0388 44.06C98.7232 43.5548 98.526 43.0093 98.4469 42.4238C98.3675 41.8385 98.4044 41.26 98.5571 40.6882C98.71 40.1163 98.968 39.5764 99.3321 39.0678C99.6961 38.5592 100.165 38.1279 100.74 37.7741C101.307 37.425 101.902 37.2004 102.527 37.1002C103.152 37 103.755 37.009 104.339 37.1271C104.923 37.2458 105.461 37.4701 105.954 37.801C106.446 38.1316 106.85 38.5495 107.166 39.0549C107.481 39.56 107.678 40.1053 107.757 40.6908C107.837 41.2764 107.8 41.8548 107.647 42.4264C107.494 42.9983 107.234 43.5395 106.866 44.0507C106.498 44.5619 106.031 44.9917 105.464 45.3408ZM104.718 44.1454C105.148 43.8804 105.5 43.5614 105.774 43.1881C106.047 42.8148 106.243 42.4269 106.361 42.0241C106.479 41.6218 106.514 41.2189 106.466 40.8166C106.418 40.4137 106.291 40.0483 106.086 39.7195C105.881 39.3908 105.608 39.1169 105.268 38.8972C104.927 38.6774 104.549 38.5294 104.132 38.4533C103.715 38.3773 103.279 38.3776 102.822 38.4538C102.366 38.5302 101.921 38.7019 101.487 38.9695C101.056 39.2342 100.706 39.5527 100.434 39.9249C100.162 40.2967 99.9681 40.6853 99.8513 41.0897C99.7346 41.4942 99.6987 41.8975 99.7433 42.2993C99.7882 42.7011 99.9129 43.0665 100.118 43.395C100.323 43.7235 100.598 43.9983 100.942 44.2187C101.285 44.4391 101.665 44.5867 102.081 44.6605C102.496 44.7344 102.932 44.7333 103.388 44.6571C103.844 44.5809 104.288 44.4103 104.718 44.1454Z" fill="white"/>
<path d="M105.431 55.2538L104.154 55.6693L102.176 49.6755L111.124 46.7617L113.057 52.6178L111.78 53.0333L110.289 48.5139L107.875 49.3001L109.248 53.4612L107.965 53.8791L106.592 49.7177L103.893 50.5967L105.431 55.2538Z" fill="white"/>
<path d="M35.3426 96.0781C35.6338 96.3633 35.8544 96.6763 36.0046 97.0169C36.1549 97.3578 36.2313 97.7077 36.2337 98.0665C36.2361 98.4253 36.1644 98.7762 36.0187 99.119C35.8733 99.4617 35.6569 99.7775 35.3697 100.067C35.0825 100.356 34.7674 100.575 34.4245 100.724C34.0813 100.873 33.729 100.949 33.3678 100.952C33.0065 100.954 32.6532 100.883 32.3081 100.738C31.9631 100.594 31.6451 100.378 31.3541 100.093L28.5898 97.3844L35.2033 90.7266L39.5108 94.9481L38.5677 95.8977L35.268 92.6641L33.5865 94.357L35.3426 96.0781ZM32.6431 95.3064L30.5411 97.4224L32.2975 99.1437C32.5953 99.4356 32.9351 99.5769 33.3171 99.5674C33.699 99.5582 34.047 99.3953 34.3616 99.0786C34.6761 98.7622 34.8354 98.4142 34.8399 98.0348C34.8441 97.6555 34.6974 97.3196 34.3995 97.0277L32.6431 95.3064Z" fill="white"/>
<path d="M44.4074 98.3654C44.7522 98.5837 45.0351 98.8558 45.256 99.1817C45.4768 99.5076 45.6287 99.8556 45.7112 100.226C45.794 100.596 45.8047 100.976 45.7433 101.364C45.682 101.752 45.5416 102.117 45.3221 102.46C45.1023 102.802 44.8278 103.084 44.4984 103.306C44.169 103.527 43.8184 103.678 43.4467 103.758C43.0751 103.838 42.6934 103.848 42.3014 103.79C41.9093 103.731 41.5409 103.592 41.1961 103.374L39.4906 102.295L37.6437 105.176L36.4492 104.42L41.5074 96.5312L44.4074 98.3654ZM41.9175 102.249C42.0941 102.36 42.2841 102.431 42.488 102.459C42.6916 102.488 42.8957 102.478 43.0998 102.429C43.3039 102.381 43.4956 102.296 43.6748 102.174C43.8537 102.052 44.0047 101.896 44.1276 101.704C44.2452 101.521 44.3216 101.323 44.3569 101.11C44.3922 100.897 44.3883 100.69 44.345 100.488C44.3015 100.286 44.2248 100.097 44.1154 99.9215C44.0055 99.7459 43.8624 99.6025 43.6859 99.4907L41.9805 98.4118L40.2121 101.17L41.9175 102.249Z" fill="white"/>
<path d="M54.9375 107.92C54.7156 108.555 54.3947 109.104 53.975 109.568C53.5551 110.032 53.0813 110.401 52.5531 110.674C52.0246 110.948 51.4642 111.11 50.872 111.161C50.2796 111.213 49.7007 111.141 49.1353 110.946C48.5699 110.751 48.0706 110.451 47.6379 110.046C47.205 109.641 46.8668 109.168 46.6226 108.629C46.3787 108.089 46.2364 107.508 46.1966 106.886C46.1568 106.263 46.2478 105.634 46.4697 105C46.6884 104.374 47.0083 103.827 47.4298 103.358C47.8513 102.889 48.3259 102.519 48.8544 102.246C49.3827 101.972 49.9427 101.81 50.5352 101.758C51.1277 101.707 51.7066 101.778 52.272 101.974C52.8374 102.169 53.3364 102.469 53.7693 102.874C54.202 103.279 54.5404 103.751 54.7846 104.291C55.0286 104.83 55.1698 105.414 55.2083 106.041C55.2465 106.668 55.1562 107.294 54.9375 107.92ZM53.5997 107.459C53.7659 106.984 53.8367 106.516 53.8126 106.055C53.7884 105.593 53.6942 105.169 53.5307 104.783C53.3669 104.397 53.1386 104.062 52.8461 103.78C52.5533 103.497 52.2231 103.292 51.8555 103.165C51.4876 103.039 51.1019 102.997 50.6982 103.039C50.2942 103.081 49.9066 103.203 49.5348 103.405C49.1626 103.607 48.8239 103.88 48.5179 104.225C48.2118 104.569 47.975 104.981 47.8075 105.461C47.6414 105.936 47.571 106.403 47.596 106.862C47.6209 107.321 47.7165 107.744 47.8824 108.131C48.0483 108.518 48.276 108.854 48.5659 109.138C48.8555 109.422 49.1841 109.627 49.552 109.754C49.9196 109.881 50.3069 109.922 50.7138 109.879C51.1205 109.835 51.5088 109.712 51.8786 109.509C52.2481 109.307 52.586 109.033 52.8918 108.688C53.1978 108.344 53.4338 107.934 53.5997 107.459Z" fill="white"/>
<path d="M63.1037 104.166L62.7969 108.462L66.1619 104.382L67.8803 104.503L64.1228 108.854L67.5127 113.853L65.7942 113.732L62.7494 109.128L62.4375 113.496L61.0248 113.396L61.337 109.028L57.6683 113.16L55.957 113.039L60.0233 108.565L56.9145 103.73L58.6329 103.851L61.3845 108.363L61.6911 104.067L63.1037 104.166Z" fill="white"/>
<path d="M76.977 110.926L77.2111 112.239L70.9576 113.338L69.3164 104.129L75.426 103.055L75.6602 104.368L70.9449 105.197L71.3876 107.682L75.7292 106.918L75.9646 108.239L71.6231 109.003L72.1181 111.78L76.977 110.926Z" fill="white"/>
<path d="M84.1066 99.6797L87.8048 108.281L86.4959 108.836L84.8817 105.082L80.8943 106.774L82.5082 110.528L81.2059 111.08L77.5078 102.479L78.8101 101.926L80.3639 105.54L84.3514 103.849L82.7978 100.235L84.1066 99.6797Z" fill="white"/>
<path d="M96.4826 102.51L92.4387 97.166L92.8355 105.232L91.8844 105.942L86.2266 98.466L87.3587 97.621L91.3981 102.959L91.0055 94.8981L91.9625 94.1836L97.6203 101.66L96.4826 102.51Z" fill="white"/>
<path d="M103.973 92.8188L104.999 93.6793L100.903 98.4998L93.707 92.4676L97.7088 87.7578L98.7353 88.6184L95.6469 92.253L97.588 93.8802L100.432 90.5337L101.464 91.3988L98.6201 94.7455L100.79 96.5647L103.973 92.8188Z" fill="white"/>
<path d="M63.135 74.1069C65.6473 74.1069 67.684 72.084 67.684 69.5886C67.684 67.0932 65.6473 65.0703 63.135 65.0703C60.6226 65.0703 58.5859 67.0932 58.5859 69.5886C58.5859 72.084 60.6226 74.1069 63.135 74.1069Z" fill="white"/>
<path d="M55.8633 82.4145C57.4403 82.4145 58.7187 81.1447 58.7187 79.5783C58.7187 78.012 57.4403 76.7422 55.8633 76.7422C54.2862 76.7422 53.0078 78.012 53.0078 79.5783C53.0078 81.1447 54.2862 82.4145 55.8633 82.4145Z" fill="white"/>
<path d="M68.3125 48.6333C69.8895 48.6333 71.1679 47.3635 71.1679 45.7971C71.1679 44.2307 69.8895 42.9609 68.3125 42.9609C66.7355 42.9609 65.457 44.2307 65.457 45.7971C65.457 47.3635 66.7355 48.6333 68.3125 48.6333Z" fill="white"/>
<path d="M69.957 66.7153C71.5341 66.7153 72.8125 65.4455 72.8125 63.8791C72.8125 62.3128 71.5341 61.043 69.957 61.043C68.38 61.043 67.1016 62.3128 67.1016 63.8791C67.1016 65.4455 68.38 66.7153 69.957 66.7153Z" fill="white"/>
<path d="M69.043 55.4809C70.62 55.4809 71.8984 54.2111 71.8984 52.6448C71.8984 51.0784 70.62 49.8086 69.043 49.8086C67.4659 49.8086 66.1875 51.0784 66.1875 52.6448C66.1875 54.2111 67.4659 55.4809 69.043 55.4809Z" fill="white"/>
<path d="M60.8631 62.2209C62.0388 62.2209 62.9918 61.2743 62.9918 60.1065C62.9918 58.9388 62.0388 57.9922 60.8631 57.9922C59.6874 57.9922 58.7344 58.9388 58.7344 60.1065C58.7344 61.2743 59.6874 62.2209 60.8631 62.2209Z" fill="white"/>
<path d="M71.2615 73.2287C72.4372 73.2287 73.3903 72.2821 73.3903 71.1143C73.3903 69.9466 72.4372 69 71.2615 69C70.0859 69 69.1328 69.9466 69.1328 71.1143C69.1328 72.2821 70.0859 73.2287 71.2615 73.2287Z" fill="white"/>
<path d="M75.9022 64.3303C77.0778 64.3303 78.0309 63.3836 78.0309 62.2159C78.0309 61.0482 77.0778 60.1016 75.9022 60.1016C74.7265 60.1016 73.7734 61.0482 73.7734 62.2159C73.7734 63.3836 74.7265 64.3303 75.9022 64.3303Z" fill="white"/>
<path d="M74.1639 51.4592C75.3395 51.4592 76.2926 50.5125 76.2926 49.3448C76.2926 48.1771 75.3395 47.2305 74.1639 47.2305C72.9882 47.2305 72.0352 48.1771 72.0352 49.3448C72.0352 50.5125 72.9882 51.4592 74.1639 51.4592Z" fill="white"/>
<path d="M76.5506 57.1232C77.7263 57.1232 78.6793 56.1766 78.6793 55.0089C78.6793 53.8412 77.7263 52.8945 76.5506 52.8945C75.3749 52.8945 74.4219 53.8412 74.4219 55.0089C74.4219 56.1766 75.3749 57.1232 76.5506 57.1232Z" fill="white"/>
<path d="M66.3865 79.1701C67.5622 79.1701 68.5153 78.2235 68.5153 77.0558C68.5153 75.888 67.5622 74.9414 66.3865 74.9414C65.2109 74.9414 64.2578 75.888 64.2578 77.0558C64.2578 78.2235 65.2109 79.1701 66.3865 79.1701Z" fill="white"/>
<path d="M56.9625 87.0984C57.8543 87.0984 58.5773 86.3803 58.5773 85.4945C58.5773 84.6087 57.8543 83.8906 56.9625 83.8906C56.0706 83.8906 55.3477 84.6087 55.3477 85.4945C55.3477 86.3803 56.0706 87.0984 56.9625 87.0984Z" fill="white"/>
<path d="M61.9312 85.6141C62.8231 85.6141 63.546 84.896 63.546 84.0102C63.546 83.1243 62.8231 82.4062 61.9312 82.4062C61.0394 82.4062 60.3164 83.1243 60.3164 84.0102C60.3164 84.896 61.0394 85.6141 61.9312 85.6141Z" fill="white"/>
<path d="M61.5757 80.2586C62.4676 80.2586 63.1906 79.5405 63.1906 78.6547C63.1906 77.7689 62.4676 77.0508 61.5757 77.0508C60.6839 77.0508 59.9609 77.7689 59.9609 78.6547C59.9609 79.5405 60.6839 80.2586 61.5757 80.2586Z" fill="white"/>
<path d="M55.8492 74.325C56.741 74.325 57.464 73.6069 57.464 72.7211C57.464 71.8353 56.741 71.1172 55.8492 71.1172C54.9574 71.1172 54.2344 71.8353 54.2344 72.7211C54.2344 73.6069 54.9574 74.325 55.8492 74.325Z" fill="white"/>
<path d="M66.6695 60.8016C67.5613 60.8016 68.2843 60.0835 68.2843 59.1976C68.2843 58.3118 67.5613 57.5938 66.6695 57.5938C65.7777 57.5938 65.0547 58.3118 65.0547 59.1976C65.0547 60.0835 65.7777 60.8016 66.6695 60.8016Z" fill="white"/>
<path d="M72.9507 59.8641C73.8426 59.8641 74.5656 59.146 74.5656 58.2601C74.5656 57.3743 73.8426 56.6562 72.9507 56.6562C72.0589 56.6562 71.3359 57.3743 71.3359 58.2601C71.3359 59.146 72.0589 59.8641 72.9507 59.8641Z" fill="white"/>
<path d="M56.3297 67.5281C57.2215 67.5281 57.9445 66.81 57.9445 65.9242C57.9445 65.0384 57.2215 64.3203 56.3297 64.3203C55.4378 64.3203 54.7148 65.0384 54.7148 65.9242C54.7148 66.81 55.4378 67.5281 56.3297 67.5281Z" fill="white"/>
<path d="M63.0093 55.618C63.9012 55.618 64.6242 54.8999 64.6242 54.0141C64.6242 53.1283 63.9012 52.4102 63.0093 52.4102C62.1175 52.4102 61.3945 53.1283 61.3945 54.0141C61.3945 54.8999 62.1175 55.618 63.0093 55.618Z" fill="white"/>
<path d="M66.3414 42.7625C67.2332 42.7625 67.9562 42.0444 67.9562 41.1586C67.9562 40.2728 67.2332 39.5547 66.3414 39.5547C65.4495 39.5547 64.7266 40.2728 64.7266 41.1586C64.7266 42.0444 65.4495 42.7625 66.3414 42.7625Z" fill="white"/>
<path d="M64.5206 39.6731C65.0346 39.6731 65.4513 39.2592 65.4513 38.7487C65.4513 38.2381 65.0346 37.8242 64.5206 37.8242C64.0065 37.8242 63.5898 38.2381 63.5898 38.7487C63.5898 39.2592 64.0065 39.6731 64.5206 39.6731Z" fill="white"/>
<path d="M62.8697 37.457C63.0782 37.457 63.2472 37.2891 63.2472 37.082C63.2472 36.8749 63.0782 36.707 62.8697 36.707C62.6612 36.707 62.4922 36.8749 62.4922 37.082C62.4922 37.2891 62.6612 37.457 62.8697 37.457Z" fill="white"/>
<path d="M58.837 92.4778C59.351 92.4778 59.7677 92.0639 59.7677 91.5533C59.7677 91.0428 59.351 90.6289 58.837 90.6289C58.323 90.6289 57.9062 91.0428 57.9062 91.5533C57.9062 92.0639 58.323 92.4778 58.837 92.4778Z" fill="white"/>
<path d="M59.8613 89.4634C60.5548 89.4634 61.1171 88.905 61.1171 88.2161C61.1171 87.5272 60.5548 86.9688 59.8613 86.9688C59.1677 86.9688 58.6055 87.5272 58.6055 88.2161C58.6055 88.905 59.1677 89.4634 59.8613 89.4634Z" fill="white"/>
<path d="M59.5416 94.1601C59.7501 94.1601 59.9191 93.9922 59.9191 93.7851C59.9191 93.578 59.7501 93.4102 59.5416 93.4102C59.3331 93.4102 59.1641 93.578 59.1641 93.7851C59.1641 93.9922 59.3331 94.1601 59.5416 94.1601Z" fill="white"/>
</svg>
