<svg width="131" height="131" viewBox="0 0 131 131" fill="none" xmlns="http://www.w3.org/2000/svg">
<path opacity="0.1" d="M65.2266 130.004C101.125 130.004 130.227 100.902 130.227 65.0039C130.227 29.1054 101.125 0.00390625 65.2266 0.00390625C29.3281 0.00390625 0.226562 29.1054 0.226562 65.0039C0.226562 100.902 29.3281 130.004 65.2266 130.004Z" fill="white"/>
<path d="M45.0795 99.2419L39.578 106.832L38.4228 106.006L43.1397 99.4984L39.5615 96.9397L34.8447 103.448L33.6953 102.626L39.1971 95.0352L45.0795 99.2419Z" fill="white"/>
<path d="M50.4116 101.675C50.7885 101.832 51.1134 102.053 51.3863 102.337C51.6591 102.622 51.868 102.939 52.0124 103.291C52.1566 103.642 52.2314 104.014 52.237 104.407C52.2421 104.8 52.1656 105.183 52.0074 105.558C51.8489 105.932 51.626 106.256 51.339 106.529C51.0518 106.802 50.7317 107.009 50.3792 107.15C50.0264 107.292 49.6519 107.366 49.2553 107.374C48.859 107.381 48.4723 107.306 48.0953 107.149L46.2314 106.371L44.8994 109.519L43.5938 108.974L47.242 100.352L50.4116 101.675ZM48.6159 105.919C48.8086 105.999 49.0079 106.037 49.2136 106.031C49.4194 106.025 49.6187 105.981 49.8119 105.899C50.0049 105.817 50.1793 105.701 50.3351 105.551C50.4909 105.401 50.613 105.222 50.7017 105.012C50.7866 104.812 50.8283 104.604 50.8273 104.389C50.8259 104.173 50.7869 103.969 50.7099 103.777C50.6327 103.585 50.5252 103.412 50.3874 103.257C50.2497 103.103 50.084 102.985 49.8913 102.905L48.0271 102.126L46.7517 105.141L48.6159 105.919Z" fill="white"/>
<path d="M62.3877 109.349C62.2771 110.012 62.0544 110.607 61.7196 111.135C61.3849 111.663 60.9806 112.106 60.5066 112.464C60.0325 112.822 59.5077 113.076 58.9328 113.226C58.3576 113.377 57.7749 113.404 57.1843 113.306C56.594 113.209 56.0509 112.997 55.5553 112.671C55.0597 112.344 54.6457 111.936 54.3133 111.445C53.9807 110.954 53.7418 110.405 53.5966 109.798C53.4512 109.191 53.4337 108.556 53.5444 107.893C53.6532 107.24 53.8754 106.647 54.2111 106.115C54.5464 105.582 54.9512 105.137 55.4255 104.778C55.8993 104.421 56.4238 104.166 56.9991 104.016C57.5743 103.866 58.1569 103.839 58.7475 103.936C59.3381 104.033 59.8809 104.245 60.3765 104.572C60.8721 104.898 61.2862 105.307 61.6185 105.798C61.9511 106.289 62.1895 106.84 62.3341 107.451C62.4788 108.063 62.4966 108.696 62.3877 109.349ZM60.9905 109.119C61.0733 108.623 61.0635 108.15 60.961 107.699C60.8585 107.249 60.6937 106.847 60.4668 106.494C60.2395 106.14 59.9576 105.849 59.6211 105.62C59.2842 105.39 58.924 105.244 58.5399 105.181C58.1558 105.118 57.7683 105.141 57.3778 105.251C56.9868 105.36 56.6256 105.545 56.2935 105.807C55.9612 106.068 55.6737 106.395 55.4308 106.785C55.188 107.177 55.025 107.623 54.9414 108.123C54.8585 108.619 54.8686 109.091 54.9716 109.54C55.0743 109.988 55.2405 110.388 55.4701 110.742C55.6997 111.096 55.9814 111.389 56.3153 111.62C56.6489 111.851 57.0078 111.998 57.3919 112.062C57.776 112.125 58.1649 112.101 58.5585 111.989C58.9519 111.878 59.3134 111.691 59.6434 111.429C59.973 111.167 60.2594 110.841 60.5023 110.45C60.7449 110.058 60.9079 109.615 60.9905 109.119Z" fill="white"/>
<path d="M73.2776 112.093L73.5205 115.273L72.1739 115.375L72.0327 113.524L65.7728 113.996L65.9143 115.847L64.5752 115.948L64.332 112.767L64.8706 112.726C65.032 112.603 65.1745 112.456 65.2982 112.287C65.4089 112.138 65.5114 111.962 65.6056 111.758C65.6998 111.555 65.7553 111.307 65.772 111.015L66.0285 104.597L71.6184 104.176L72.2294 112.171L73.2776 112.093ZM70.3081 105.612L67.404 105.831L67.1913 110.908C67.1744 111.195 67.1335 111.442 67.0687 111.648C67.0039 111.854 66.9355 112.028 66.8633 112.169C66.7783 112.335 66.6793 112.478 66.5665 112.598L70.8173 112.278L70.3081 105.612Z" fill="white"/>
<path d="M80.3756 101.793L79.3725 109.841C79.2703 110.648 79.0986 111.254 78.8576 111.659C78.6163 112.064 78.2463 112.34 77.7475 112.489C77.5282 112.554 77.3278 112.588 77.146 112.592C77.0473 112.601 76.9493 112.605 76.8524 112.604L76.5092 111.464C76.5612 111.469 76.6215 111.466 76.6895 111.456C76.7388 111.451 76.8004 111.441 76.8742 111.424C76.9477 111.407 77.0242 111.387 77.1035 111.363C77.3878 111.279 77.6028 111.133 77.7488 110.925C77.8945 110.718 77.9811 110.492 78.009 110.247L78.1029 109.522L73.2148 103.922L74.6482 103.496L78.2524 107.692L78.9489 102.217L80.3756 101.793Z" fill="white"/>
<path d="M90.6094 106.988L85.2292 104.891L87.3182 108.747L86.0712 109.414L81.6094 101.178L82.8564 100.511L84.9109 104.303L85.884 98.8927L87.401 98.082L86.2355 103.933L92.1264 106.177L90.6094 106.988Z" fill="white"/>
<path d="M87.9609 97.6901L93.4221 93.1797L94.2808 94.2055L92.092 96.0134L97.254 102.179L96.1652 103.078L91.0031 96.9126L88.8199 98.716L87.9609 97.6901Z" fill="white"/>
<path d="M23.1035 39.832L31.4975 44.0704L30.8525 45.3309L27.1889 43.4809L25.2238 47.3201L28.8874 49.1699L28.2456 50.4238L19.8516 46.1854L20.4934 44.9315L24.02 46.7121L25.9851 42.8732L22.4582 41.0923L23.1035 39.832Z" fill="white"/>
<path d="M33.1816 41.6706L32.2154 42.8059L27.3438 34.0428L28.1119 33.1406L37.6213 36.4557L36.6551 37.5905L34.4671 36.8259L32.054 39.6603L33.1816 41.6706ZM33.1067 36.3576L29.381 34.9848L31.3676 38.4004L33.1067 36.3576Z" fill="white"/>
<path d="M31.75 29.2706L37.2831 24.8477L38.1251 25.887L35.9073 27.6597L40.969 33.9068L39.8658 34.7884L34.8042 28.5416L32.592 30.3099L31.75 29.2706Z" fill="white"/>
<path d="M46.1366 19.9727L46.6502 28.0661C46.7001 28.8786 46.6444 29.5056 46.4827 29.9475C46.3211 30.3899 46.0089 30.7294 45.5463 30.9667C45.3432 31.0711 45.1526 31.1418 44.9745 31.1787C44.8792 31.2061 44.7837 31.2277 44.6881 31.2441L44.1386 30.1879C44.1907 30.1829 44.2493 30.1689 44.3144 30.1465C44.3619 30.1331 44.4205 30.1112 44.4898 30.0809C44.5591 30.0508 44.6302 30.0171 44.7038 29.9791C44.9676 29.8441 45.1518 29.6611 45.2564 29.4304C45.361 29.2 45.404 28.9617 45.3857 28.7152L45.3432 27.9865L39.4961 23.3811L40.8257 22.6988L45.1489 26.1599L44.8139 20.6518L46.1366 19.9727Z" fill="white"/>
<path d="M52.725 17.8878C53.1191 17.7799 53.512 17.7541 53.9035 17.8097C54.295 17.8659 54.6568 17.9874 54.9889 18.1751C55.321 18.3623 55.6114 18.6091 55.8601 18.9144C56.1085 19.22 56.2872 19.5682 56.3957 19.96C56.5043 20.3513 56.5306 20.7425 56.4751 21.1338C56.4194 21.525 56.2967 21.8846 56.1075 22.2121C55.9182 22.5395 55.6698 22.828 55.3629 23.0771C55.0561 23.3265 54.7054 23.505 54.3115 23.6126L52.3618 24.1457L53.2742 27.4381L51.9087 27.8114L49.4102 18.7936L52.725 17.8878ZM53.955 22.3265C54.1568 22.2714 54.3367 22.1783 54.4947 22.0476C54.6526 21.9165 54.7821 21.7597 54.8827 21.5767C54.9836 21.3937 55.0486 21.1955 55.0776 20.9819C55.1068 20.7684 55.0911 20.5522 55.0303 20.3331C54.9722 20.1235 54.8756 19.9342 54.7407 19.7654C54.6056 19.597 54.4479 19.4609 54.268 19.3573C54.0877 19.2534 53.8953 19.1833 53.6909 19.1464C53.4863 19.1095 53.2832 19.1187 53.0815 19.1738L51.1321 19.7069L52.0054 22.8596L53.955 22.3265Z" fill="white"/>
<path d="M60.0871 25.8747L58.5938 25.968L61.5879 16.41L62.7755 16.3359L66.9501 25.447L65.4564 25.5398L64.4974 23.4423L60.7674 23.6748L60.0871 25.8747ZM63.8959 22.143L62.3139 18.5221L61.2078 22.3107L63.8959 22.143Z" fill="white"/>
<path d="M77.0944 17.5517L75.5278 26.7741L74.1241 26.5389L75.4673 18.6316L72.2284 18.089L70.9832 23.1521C70.7597 24.0609 70.37 24.721 69.8139 25.1326C69.2578 25.5444 68.6272 25.691 67.9219 25.5729C67.8353 25.5586 67.7554 25.5426 67.6819 25.5254C67.6084 25.508 67.5484 25.4906 67.502 25.4732C67.4459 25.454 67.3934 25.4305 67.3438 25.4026L67.5428 24.2301L67.687 24.2541C68.1284 24.3282 68.5255 24.2415 68.8785 23.9942C69.2313 23.7474 69.4675 23.3883 69.5867 22.9182L71.1921 16.5625L77.0944 17.5517Z" fill="white"/>
<path d="M77.9766 27.5857L81.6099 18.957L82.9164 19.4999L81.5897 22.6502L83.5224 23.4533C83.8996 23.6099 84.2248 23.8303 84.4984 24.114C84.7718 24.3976 84.981 24.7151 85.1259 25.0662C85.2709 25.4174 85.3462 25.7892 85.3523 26.182C85.3584 26.5748 85.2825 26.9584 85.1249 27.3331C84.9672 27.7075 84.745 28.0317 84.4583 28.3057C84.1714 28.5796 83.8518 28.7874 83.4996 28.9292C83.1471 29.071 82.7725 29.1459 82.3762 29.1538C81.9797 29.1623 81.5929 29.0879 81.2157 28.9313L77.9766 27.5857ZM81.0716 23.8809L79.8012 26.8978L81.7341 27.7006C81.9271 27.7807 82.1275 27.8182 82.3356 27.8129C82.5435 27.8076 82.7428 27.7633 82.9334 27.68C83.124 27.597 83.2968 27.4812 83.4513 27.3333C83.606 27.1854 83.7284 27.0046 83.8184 26.7905C83.903 26.5896 83.9442 26.3818 83.9429 26.1662C83.9413 25.9508 83.9028 25.7475 83.8277 25.5566C83.7525 25.3655 83.6448 25.1923 83.5044 25.0372C83.3639 24.8817 83.1972 24.7641 83.0043 24.684L81.0716 23.8809Z" fill="white"/>
<path d="M96.9037 27.5401L91.4006 35.1297L90.2456 34.3034L92.6473 30.9912L89.1289 28.4744L86.7272 31.7866L85.5781 30.9646L91.0812 23.375L92.2303 24.197L89.9181 27.3859L93.4365 29.9029L95.7487 26.7138L96.9037 27.5401Z" fill="white"/>
<path d="M93.3594 36.7901L100.657 30.8789L101.552 31.9688L98.8872 34.127L100.115 35.6216C100.373 35.9362 100.556 36.2837 100.664 36.6638C100.772 37.044 100.806 37.4221 100.766 37.7975C100.726 38.1729 100.616 38.5365 100.437 38.8877C100.257 39.2391 100.009 39.5429 99.6922 39.7996C99.3756 40.0559 99.0249 40.2373 98.6406 40.3428C98.2565 40.4482 97.8758 40.482 97.4994 40.444C97.1228 40.406 96.757 40.2969 96.4018 40.1168C96.0467 39.9367 95.7398 39.6894 95.4816 39.3746L93.3594 36.7901ZM97.8464 34.9702L95.2952 37.0369L96.5224 38.5315C96.6545 38.6923 96.8138 38.8194 96.9996 38.9119C97.1857 39.0045 97.3832 39.0599 97.5923 39.0773C97.8015 39.0952 98.0086 39.0738 98.2137 39.014C98.4187 38.9539 98.6116 38.8505 98.7927 38.7039C98.9625 38.5663 99.0985 38.4034 99.2006 38.2141C99.3031 38.0253 99.3655 37.8281 99.3883 37.6225C99.4111 37.4168 99.3973 37.213 99.3472 37.0103C99.297 36.8078 99.2057 36.6259 99.0735 36.4648L97.8464 34.9702ZM98.9326 43.5772L98.0327 42.4817L105.33 36.5705L106.23 37.6662L98.9326 43.5772Z" fill="white"/>
<path d="M102.511 50.989L108.655 48.2619L100.649 46.8519L100.164 45.7728L108.761 41.957L109.339 43.2413L103.201 45.9655L111.2 47.3787L111.689 48.4641L103.091 52.2798L102.511 50.989ZM111.11 44.8139C110.893 44.333 110.866 43.8698 111.029 43.4245C111.19 42.9795 111.478 42.623 111.89 42.3551L112.316 43.3016C112.123 43.4298 111.987 43.6011 111.908 43.8163C111.829 44.0314 111.836 44.2426 111.929 44.4501C112.023 44.6573 112.177 44.8036 112.391 44.8888C112.605 44.9737 112.824 44.9874 113.049 44.9299L113.475 45.8767C112.999 46.0032 112.54 45.9782 112.097 45.801C111.655 45.6238 111.326 45.2948 111.11 44.8139Z" fill="white"/>
<path d="M62.4922 85.4277L65.6696 85.772L63.1854 77.7578L62.4922 85.4277Z" fill="white"/>
<path d="M61.3783 78.4662C61.3783 78.4662 60.8546 71.1849 58.8171 67.8698C56.0505 63.3686 48.919 61.7492 47.0896 59.4731C45.2602 57.197 44.1047 55.2461 44.1047 55.2461C44.1047 55.2461 42.1854 65.0518 46.3578 72.0013C50.6715 79.1861 61.3783 78.4662 61.3783 78.4662Z" fill="white"/>
<path d="M61.1039 65.007C61.1039 65.007 64.3704 59.9375 63.5318 57.0555C62.248 52.6436 57.8174 55.1375 56.4565 44.2734C55.1395 46.531 53.4637 53.1069 54.1457 57.4838C55.147 63.9104 61.1039 65.007 61.1039 65.007Z" fill="white"/>
<path d="M62.9397 75.0761C62.9397 75.0761 61.7495 64.8774 65.7384 59.698C70.3344 53.7304 79.2697 56.8927 86.5617 47.5078C86.9725 49.1655 88.1932 60.4017 82.5958 68.5243C75.6291 78.634 65.0194 76.8613 65.0194 76.8613L66.9965 70.4856L62.9397 75.0761Z" fill="white"/>
</svg>
