<svg width="131" height="131" viewBox="0 0 131 131" fill="none" xmlns="http://www.w3.org/2000/svg">
<path opacity="0.1" d="M65.2266 130.004C101.125 130.004 130.227 100.902 130.227 65.0039C130.227 29.1054 101.125 0.00390625 65.2266 0.00390625C29.3281 0.00390625 0.226562 29.1054 0.226562 65.0039C0.226562 100.902 29.3281 130.004 65.2266 130.004Z" fill="white"/>
<path d="M28.091 33.2773L35.6322 38.8788L34.7796 40.0109L28.3142 35.2086L25.6736 38.7153L32.139 43.5179L31.2909 44.6442L23.75 39.0428L28.091 33.2773Z" fill="white"/>
<path d="M34.0109 27.7071C34.3236 27.445 34.6692 27.2584 35.0485 27.1463C35.4276 27.0343 35.8074 26.9942 36.1881 27.0264C36.5684 27.0585 36.9361 27.1616 37.2907 27.3356C37.6453 27.5096 37.9546 27.7519 38.2182 28.0622C38.4815 28.3725 38.6705 28.7169 38.7849 29.0955C38.8993 29.4738 38.9396 29.8511 38.9056 30.227C38.8717 30.6035 38.7679 30.9684 38.5943 31.3228C38.4207 31.6766 38.1775 31.9845 37.8651 32.2463L36.3195 33.5411L38.5359 36.1517L37.4532 37.0584L31.3828 29.9086L34.0109 27.7071ZM36.9993 31.2265C37.1591 31.0926 37.2833 30.9331 37.3717 30.7485C37.4601 30.564 37.5113 30.3678 37.5256 30.1595C37.54 29.9518 37.5155 29.7446 37.4518 29.5384C37.3884 29.3325 37.283 29.1427 37.1354 28.9689C36.9942 28.8028 36.8267 28.671 36.6332 28.574C36.4394 28.4772 36.239 28.4189 36.0315 28.4C35.8244 28.3805 35.62 28.3968 35.4188 28.4485C35.2174 28.5002 35.0369 28.593 34.8768 28.7269L33.3311 30.0214L35.4536 32.5213L36.9993 31.2265Z" fill="white"/>
<path d="M49.158 29.2487L46.0943 23.2966L45.0957 31.3115L44.0363 31.8493L39.75 23.5218L41.0108 22.8814L44.0711 28.8269L45.0729 20.8189L46.1389 20.2773L50.4252 28.6051L49.158 29.2487Z" fill="white"/>
<path d="M53.9468 17.8686C54.3433 17.771 54.7367 17.7552 55.1266 17.8211C55.5166 17.887 55.8752 18.0181 56.2022 18.2139C56.5292 18.4101 56.8132 18.6637 57.0537 18.9756C57.2945 19.2875 57.4638 19.6403 57.562 20.0344C57.6603 20.4286 57.6764 20.8204 57.6106 21.21C57.5448 21.5997 57.4131 21.9559 57.2151 22.2783C57.0174 22.601 56.7617 22.8829 56.4483 23.1241C56.135 23.3656 55.7799 23.5349 55.3833 23.6324L53.4204 24.1151L54.2467 27.43L52.872 27.768L50.6094 18.689L53.9468 17.8686ZM55.0605 22.3374C55.2636 22.2878 55.4457 22.1992 55.6073 22.0724C55.7685 21.9456 55.902 21.7922 56.0076 21.6118C56.113 21.4315 56.1831 21.2351 56.2179 21.0223C56.2524 20.8098 56.2425 20.5931 56.1873 20.3724C56.1348 20.1612 56.0432 19.9698 55.9126 19.7977C55.782 19.6255 55.628 19.4855 55.4507 19.3772C55.2732 19.2691 55.0828 19.1939 54.8792 19.1517C54.6757 19.1098 54.4723 19.1135 54.2693 19.1636L52.3066 19.6461L53.0976 22.8201L55.0605 22.3374Z" fill="white"/>
<path d="M69.3425 21.1571C69.3534 21.8289 69.2419 22.4542 69.008 23.0332C68.7739 23.6122 68.4562 24.1202 68.0546 24.5568C67.653 24.9937 67.1826 25.3369 66.6443 25.5874C66.1054 25.8379 65.5371 25.9678 64.9386 25.9776C64.34 25.9871 63.7674 25.8756 63.2212 25.6428C62.6746 25.4097 62.1936 25.0817 61.7777 24.6578C61.362 24.2344 61.0278 23.7371 60.7751 23.1658C60.5224 22.5945 60.3905 21.9733 60.3796 21.3013C60.3687 20.6393 60.4802 20.0163 60.7141 19.4323C60.9479 18.8486 61.2657 18.3382 61.6675 17.9016C62.0692 17.465 62.5393 17.1212 63.0778 16.8707C63.6164 16.6205 64.185 16.4905 64.7835 16.4811C65.3821 16.4713 65.9544 16.5828 66.5009 16.8159C67.0475 17.049 67.5285 17.3769 67.9444 17.8003C68.3601 18.224 68.6943 18.7236 68.947 19.3C69.1997 19.8758 69.3316 20.4948 69.3425 21.1571ZM67.9264 21.1798C67.9181 20.6773 67.8231 20.2135 67.641 19.7885C67.4586 19.3638 67.224 18.9978 66.9368 18.6904C66.6493 18.3833 66.3194 18.1468 65.947 17.9812C65.5743 17.8156 65.1934 17.736 64.804 17.7423C64.4148 17.7487 64.0379 17.8404 63.6735 18.0179C63.3088 18.1953 62.9868 18.4423 62.7073 18.7584C62.4275 19.0748 62.2037 19.4471 62.0354 19.8752C61.8672 20.3034 61.7873 20.7711 61.7955 21.2784C61.8037 21.7814 61.899 22.2438 62.0811 22.6662C62.2632 23.0886 62.4992 23.4535 62.7888 23.7606C63.0786 24.0677 63.4086 24.3053 63.7789 24.4732C64.1489 24.6414 64.5287 24.7224 64.9179 24.7161C65.3073 24.71 65.6852 24.6167 66.0523 24.4369C66.4192 24.257 66.7412 24.0087 67.0183 23.6923C67.2954 23.3762 67.5181 23.0042 67.6864 22.576C67.8547 22.1479 67.9346 21.6825 67.9264 21.1798Z" fill="white"/>
<path d="M79.2017 26.7203L78.4463 29.821L77.1337 29.5054L77.5732 27.7013L71.4716 26.2349L71.032 28.039L69.7266 27.7253L70.482 24.6245L71.007 24.7508C71.199 24.6825 71.38 24.5868 71.5501 24.4637C71.7014 24.3559 71.8538 24.2196 72.0064 24.0548C72.1593 23.89 72.2889 23.6715 72.3953 23.3986L74.6298 17.3711L80.0787 18.6809L78.18 26.4748L79.2017 26.7203ZM78.3863 19.6466L75.5554 18.9662L73.7788 23.7313C73.6734 23.9992 73.5579 24.2214 73.4326 24.3975C73.3071 24.5739 73.1879 24.7181 73.0756 24.8302C72.9432 24.9625 72.8046 25.0685 72.6602 25.1481L76.8035 26.1439L78.3863 19.6466Z" fill="white"/>
<path d="M91.2443 23.7576L86.8831 32.0472L85.6215 31.3923L87.5249 27.7745L83.6819 25.7801L81.7787 29.3978L80.5234 28.7463L84.8846 20.457L86.1396 21.1085L84.3073 24.5913L88.1503 26.586L89.9827 23.103L91.2443 23.7576Z" fill="white"/>
<path d="M89.0273 33.3842L95.4098 26.5078L96.4512 27.4612L94.1206 29.9719L95.5481 31.279C95.8489 31.5543 96.0796 31.8725 96.2407 32.2337C96.4018 32.5949 96.4894 32.9642 96.5032 33.3415C96.5167 33.7191 96.4597 34.0942 96.3322 34.4673C96.2046 34.8401 96.002 35.1757 95.7249 35.4742C95.4481 35.7729 95.1266 36.0012 94.7614 36.1594C94.3959 36.3181 94.0237 36.4048 93.6457 36.4201C93.2675 36.4354 92.8898 36.3787 92.5126 36.2503C92.1354 36.1219 91.7967 35.92 91.4959 35.6447L89.0273 33.3842ZM93.2104 30.9526L90.9789 33.3568L92.4064 34.664C92.5603 34.8048 92.7358 34.9081 92.933 34.9738C93.1302 35.0394 93.3338 35.0663 93.5433 35.0542C93.753 35.0426 93.955 34.9922 94.1493 34.9042C94.3438 34.8158 94.5201 34.6867 94.6786 34.5158C94.8269 34.356 94.9382 34.1752 95.0127 33.9738C95.0871 33.7723 95.121 33.5685 95.1144 33.3618C95.1075 33.1551 95.0648 32.955 94.9865 32.7615C94.9079 32.568 94.7916 32.4008 94.6379 32.2601L93.2104 30.9526ZM95.5104 39.3208L94.4638 38.3624L100.847 31.486L101.893 32.4443L95.5104 39.3208Z" fill="white"/>
<path d="M101.611 45.9507L100.485 46.6786L97.0195 41.393L104.91 36.2891L108.296 41.4531L107.171 42.181L104.557 38.1958L102.429 39.5725L104.835 43.2419L103.703 43.9741L101.297 40.3044L98.918 41.8436L101.611 45.9507Z" fill="white"/>
<path d="M35.3803 97.6615C35.4525 97.9357 35.4801 98.2199 35.4625 98.5136C35.4458 98.7662 35.3829 99.0414 35.2743 99.3394C35.1655 99.637 34.9617 99.931 34.662 100.222C34.4042 100.471 34.1077 100.655 33.7725 100.774C33.437 100.893 33.0871 100.942 32.7227 100.921C32.3582 100.899 31.9962 100.811 31.6368 100.656C31.2773 100.501 30.9482 100.272 30.6491 99.9674L27.9883 97.2581L34.7281 90.7266L37.3381 93.3836C37.5964 93.6467 37.7905 93.943 37.9208 94.2726C38.0508 94.6024 38.1153 94.9365 38.1148 95.275C38.114 95.6132 38.0498 95.9404 37.9218 96.2568C37.7942 96.5732 37.6012 96.8563 37.3434 97.106C37.1311 97.3119 36.9073 97.4561 36.6724 97.5387C36.4372 97.6214 36.2267 97.6718 36.0407 97.69C35.8132 97.7145 35.5929 97.705 35.3803 97.6615ZM31.6105 99.0356C31.7634 99.1912 31.9367 99.3104 32.1299 99.3931C32.3234 99.4759 32.5164 99.5202 32.7091 99.5258C32.9016 99.5316 33.0906 99.5007 33.2756 99.4327C33.4603 99.3649 33.6278 99.2587 33.7775 99.1132C33.9272 98.9681 34.0387 98.8047 34.1115 98.6228C34.1842 98.4409 34.22 98.2542 34.219 98.0625C34.2179 97.8711 34.1781 97.6784 34.0998 97.4843C34.0212 97.2903 33.9055 97.1152 33.7526 96.9597L32.0806 95.2576L29.9385 97.3335L31.6105 99.0356ZM32.9374 94.4271L34.5585 96.0775C34.8236 96.3472 35.1366 96.4862 35.4981 96.4938C35.8591 96.5017 36.1617 96.3876 36.4056 96.1514C36.6493 95.9151 36.7709 95.6164 36.7704 95.256C36.7696 94.8953 36.6384 94.5816 36.3767 94.3153L34.7557 92.6652L32.9374 94.4271Z" fill="white"/>
<path d="M40.6878 107.657L44.3169 102.027L36.8455 105.213L35.8438 104.576L40.9213 96.6992L42.114 97.458L38.4886 103.081L45.9559 99.9015L46.9644 100.543L41.8865 108.419L40.6878 107.657Z" fill="white"/>
<path d="M48.353 101.23L55.0251 103.648L54.5649 104.901L51.8906 103.932L49.1234 111.465L47.793 110.983L50.5602 103.45L47.8925 102.484L48.353 101.23Z" fill="white"/>
<path d="M54.9548 113.175L53.4766 112.944L58.4851 104.258L59.6605 104.441L61.7479 114.234L60.2694 114.003L59.7911 111.749L56.0988 111.173L54.9548 113.175ZM59.4875 110.351L58.7331 106.476L56.8264 109.936L59.4875 110.351Z" fill="white"/>
<path d="M73.5939 104.227L74.4638 113.54L73.0466 113.67L72.5078 107.902L70.3718 113.917L69.4778 113.999L66.2569 108.478L66.7958 114.246L65.3857 114.376L64.5156 105.063L65.7005 104.954L69.7209 111.814L72.4018 104.337L73.5939 104.227Z" fill="white"/>
<path d="M84.4934 110.358L82.1406 104.096L80.2191 111.943L79.1045 112.356L75.8125 103.593L77.1392 103.101L79.4896 109.358L81.4135 101.517L82.535 101.102L85.827 109.864L84.4934 110.358Z" fill="white"/>
<path d="M90.6229 95.9766L95.9295 103.703L94.7536 104.5L92.4377 101.128L88.8558 103.555L91.1718 106.927L90.0017 107.719L84.6953 99.993L85.8651 99.2004L88.0948 102.447L91.6767 100.02L89.447 96.7733L90.6229 95.9766Z" fill="white"/>
<path d="M99.5537 100.631L92.4375 94.5058L93.3649 93.4428L95.9631 95.6791L97.2348 94.2216C97.5024 93.9147 97.8156 93.6759 98.1742 93.505C98.5328 93.3337 98.9015 93.2356 99.2811 93.2103C99.6604 93.1852 100.04 93.2303 100.419 93.3453C100.798 93.4607 101.142 93.6513 101.451 93.9174C101.76 94.1831 102 94.495 102.17 94.8528C102.341 95.2108 102.44 95.5775 102.467 95.9522C102.494 96.3276 102.449 96.7041 102.331 97.0827C102.213 97.4608 102.02 97.8035 101.753 98.1104L99.5537 100.631ZM96.9781 96.5528L99.4661 98.6941L100.738 97.2367C100.875 97.0795 100.973 96.9024 101.033 96.7044C101.093 96.5064 101.114 96.3039 101.095 96.0961C101.077 95.8884 101.021 95.6893 100.926 95.499C100.831 95.3089 100.695 95.1375 100.519 94.9857C100.353 94.8433 100.168 94.7384 99.963 94.6703C99.7581 94.6028 99.5518 94.5754 99.344 94.5886C99.1361 94.6015 98.9363 94.65 98.7438 94.7339C98.5516 94.818 98.3868 94.9382 98.2498 95.0953L96.9781 96.5528ZM105.329 94.0118L104.396 95.0806L97.2799 88.9553L98.2121 87.8867L105.329 94.0118Z" fill="white"/>
<path d="M51.6502 57.6911C52.7732 57.6911 53.6577 57.4262 54.3038 56.8962C54.9496 56.3663 55.3751 55.7483 55.5813 55.0418L59.7933 55.3207C59.5871 56.1572 59.2502 56.9569 58.7825 57.7191C58.3143 58.4818 57.7338 59.1462 57.0415 59.7133C56.3487 60.2807 55.5484 60.736 54.6406 61.0798C53.7323 61.4241 52.7355 61.596 51.6502 61.596C50.452 61.596 49.3238 61.3682 48.2663 60.9126C47.2085 60.4571 46.2867 59.8248 45.5004 59.016C44.7142 58.2071 44.0917 57.2638 43.6331 56.1849C43.1741 55.1071 42.9453 53.9355 42.9453 52.6711C42.9453 51.4256 43.1741 50.2584 43.6331 49.1706C44.0917 48.0831 44.7142 47.1345 45.5004 46.3259C46.2867 45.517 47.2085 44.885 48.2663 44.4295C49.3238 43.9739 50.452 43.7461 51.6502 43.7461C52.6984 43.7461 53.667 43.918 54.5565 44.2618C55.4451 44.6061 56.2316 45.0617 56.9152 45.6285C57.5981 46.1959 58.1739 46.8605 58.6421 47.6228C59.1098 48.3852 59.4467 49.1846 59.6529 50.0214L55.4409 50.3003C55.3286 49.9471 55.1694 49.6128 54.9636 49.2964C54.7574 48.9803 54.4954 48.7013 54.1774 48.4596C53.8586 48.2181 53.4894 48.023 53.0681 47.8737C52.6469 47.725 52.1739 47.6507 51.6502 47.6507C51.0134 47.6507 50.4145 47.7762 49.8529 48.0272C49.2915 48.2782 48.7999 48.6267 48.3786 49.0731C47.9576 49.5194 47.625 50.0494 47.3819 50.6629C47.1385 51.2764 47.0169 51.9458 47.0169 52.6711C47.0169 53.3961 47.1385 54.0655 47.3819 54.679C47.625 55.2928 47.9576 55.8227 48.3786 56.2688C48.7999 56.7149 49.2915 57.0637 49.8529 57.3147C50.4145 57.5656 51.0134 57.6911 51.6502 57.6911Z" fill="white"/>
<path d="M79.1388 51.3995C79.6627 51.6413 80.131 51.9571 80.5429 52.3478C80.8981 52.6824 81.2211 53.1103 81.5115 53.6307C81.8016 54.1514 81.9468 54.8021 81.9468 55.583C81.9468 56.2899 81.8064 56.9543 81.5256 57.577C81.2448 58.2002 80.8469 58.7441 80.3322 59.2087C79.8172 59.6738 79.2091 60.0455 78.507 60.3242C77.8049 60.6031 77.0328 60.7429 76.1905 60.7429H68.1875V43.1719H75.7693C76.5738 43.1719 77.3136 43.3021 77.9875 43.5621C78.6615 43.8228 79.2372 44.1758 79.7145 44.6219C80.1918 45.0683 80.566 45.5842 80.8376 46.1701C81.1088 46.7556 81.2448 47.3834 81.2448 48.0525C81.2448 48.6478 81.1325 49.159 80.9079 49.5864C80.6833 50.0146 80.4397 50.3583 80.1777 50.6183C79.8592 50.9347 79.513 51.1952 79.1388 51.3995ZM72.2591 50.1443H75.348C75.9097 50.1443 76.3774 49.9629 76.7519 49.6006C77.1262 49.2379 77.3136 48.8152 77.3136 48.3314C77.3136 47.8482 77.1262 47.425 76.7519 47.0625C76.3774 46.7 75.9097 46.5186 75.348 46.5186H72.2591V50.1443ZM75.7693 57.3959C76.4055 57.3959 76.9388 57.1868 77.3699 56.7684C77.8001 56.35 78.0157 55.8617 78.0157 55.3041C78.0157 54.7462 77.8001 54.2582 77.3699 53.8398C76.9388 53.4214 76.4055 53.2123 75.7693 53.2123H72.2591V57.3959H75.7693Z" fill="white"/>
<path d="M86.7628 54.1992V60.7487H85.245V56.0706L84.5646 56.5383L83.832 55.3946L85.559 54.1992H86.7628Z" fill="white"/>
<path d="M58.3562 69.3398C59.2733 69.3398 60.1156 69.4933 60.8835 69.7999C61.6509 70.1065 62.3155 70.5347 62.8772 71.0828C63.4389 71.6315 63.8784 72.2682 64.197 72.9935C64.515 73.7185 64.6742 74.4994 64.6742 75.3362C64.6742 76.173 64.515 76.954 64.197 77.679C63.8784 78.404 63.4389 79.0412 62.8772 79.5894C62.3155 80.1383 61.6509 80.5656 60.8835 80.8723C60.1156 81.1791 59.2733 81.3326 58.3562 81.3326H55.5481V86.9108H51.4766V69.3398H58.3562ZM58.3562 77.428C58.9925 77.428 59.526 77.2187 59.9568 76.8005C60.3874 76.3821 60.6027 75.8941 60.6027 75.3362C60.6027 74.7783 60.3874 74.2903 59.9568 73.8719C59.526 73.4535 58.9925 73.2444 58.3562 73.2444H55.5481V77.428H58.3562Z" fill="white"/>
<path d="M74.075 69.3398C74.9921 69.3398 75.8343 69.4933 76.6022 69.7999C77.3696 70.1065 78.0343 70.5347 78.596 71.0828C79.1576 71.6315 79.5972 72.2682 79.9157 72.9935C80.2337 73.7185 80.393 74.4994 80.393 75.3362C80.393 76.173 80.2337 76.954 79.9157 77.679C79.5972 78.404 79.1576 79.0412 78.596 79.5894C78.0343 80.1383 77.3696 80.5656 76.6022 80.8723C75.8343 81.1791 74.9921 81.3326 74.075 81.3326H71.2669V86.9108H67.1953V69.3398H74.075ZM74.075 77.428C74.7112 77.428 75.2448 77.2187 75.6756 76.8005C76.1061 76.3821 76.3214 75.8941 76.3214 75.3362C76.3214 74.7783 76.1061 74.2903 75.6756 73.8719C75.2448 73.4535 74.7112 73.2444 74.075 73.2444H71.2669V77.428H74.075Z" fill="white"/>
</svg>
