<svg width="131" height="131" viewBox="0 0 131 131" fill="none" xmlns="http://www.w3.org/2000/svg">
<path opacity="0.1" d="M65.2266 130.004C101.125 130.004 130.227 100.902 130.227 65.0039C130.227 29.1054 101.125 0.00390625 65.2266 0.00390625C29.3281 0.00390625 0.226562 29.1054 0.226562 65.0039C0.226562 100.902 29.3281 130.004 65.2266 130.004Z" fill="white"/>
<path d="M59.0474 43.9258V49.1285H61.4371V57.0769C55.4832 59.3695 51.5273 65.09 51.5273 71.5038C51.5273 72.2212 51.576 72.9251 51.6732 73.6156L60.573 64.7259H55.0538C56.6793 61.867 59.3174 59.6149 62.5847 58.5037L63.1733 58.3041V47.3943H60.7837V45.6573H73.2234V47.3943H70.8337V54.4769L72.57 52.7427V49.1285H74.9597V43.9258H59.0474ZM77.8138 60.4429L76.5879 61.6674C77.5167 62.5709 78.3106 63.6012 78.9505 64.7259H73.5259L68.3658 69.8801C68.8708 70.5652 69.165 71.4067 69.165 72.321C69.165 74.6189 67.2965 76.4799 65.0014 76.4799C64.0833 76.4799 63.2381 76.186 62.5523 75.687L55.9341 82.2976C58.745 85.1755 62.6684 86.9663 67.0049 86.9663C75.5375 86.9663 82.4797 80.0294 82.4797 71.5038C82.4797 67.2423 80.7327 63.2856 77.8138 60.4429ZM65.1823 81.7582C64.3668 81.7582 63.7025 81.0974 63.7025 80.2802C63.7025 79.4603 64.3668 78.7967 65.1823 78.7967C66.0031 78.7967 66.6674 79.4603 66.6674 80.2802C66.6674 81.0974 66.0031 81.7582 65.1823 81.7582ZM72.3027 80.825C70.9715 80.825 69.8887 79.7488 69.8887 78.4165C69.8887 77.0814 70.9715 75.9999 72.3027 75.9999C73.6366 75.9999 74.7194 77.0814 74.7194 78.4165C74.7194 79.7488 73.6366 80.825 72.3027 80.825ZM76.037 73.3001C74.7058 73.3001 73.6231 72.2185 73.6231 70.8861C73.6231 69.5511 74.7058 68.4695 76.037 68.4695C77.371 68.4695 78.4538 69.5511 78.4538 70.8861C78.4538 72.2185 77.371 73.3001 76.037 73.3001Z" fill="white"/>
<path d="M85.4962 42.3393L42.6094 84.9727L46.4399 88.7741L89.3267 46.1408L85.4962 42.3393Z" fill="white"/>
<path d="M26.4257 41.6933C26.6314 41.3427 26.8817 41.0524 27.1766 40.823C27.4715 40.5937 27.7935 40.4331 28.1431 40.3414C28.4924 40.2499 28.8524 40.2314 29.2226 40.286C29.5932 40.3408 29.955 40.4705 30.3083 40.6746C30.6616 40.8792 30.9538 41.1275 31.1848 41.4205C31.4157 41.7134 31.5774 42.0334 31.6695 42.3804C31.7618 42.7274 31.7804 43.0849 31.7252 43.4529C31.67 43.8207 31.5397 44.18 31.3339 44.5312L29.3803 47.8648L21.2422 43.1597L24.2863 37.9648L25.4473 38.6361L23.1154 42.615L25.1848 43.8115L26.4257 41.6933ZM26.3455 44.4824L28.932 45.9779L30.1732 43.86C30.3837 43.5009 30.4368 43.1386 30.3327 42.7735C30.2284 42.4083 29.9829 42.1141 29.5958 41.8905C29.2091 41.6667 28.8301 41.6 28.459 41.6902C28.0879 41.7806 27.7972 42.0055 27.5867 42.3646L26.3455 44.4824Z" fill="white"/>
<path d="M37.3266 34.9892L38.3148 35.893L34.0129 40.5329L27.0859 34.1972L31.2889 29.6641L32.2769 30.5676L29.0332 34.0664L30.9019 35.7754L33.8886 32.5542L34.8819 33.4627L31.8952 36.6839L33.9842 38.5946L37.3266 34.9892Z" fill="white"/>
<path d="M35.6337 29.404C35.4222 29.0787 35.2812 28.7346 35.2103 28.3716C35.1395 28.0085 35.1381 27.6508 35.2069 27.298C35.2754 26.9458 35.4195 26.6062 35.6388 26.2801C35.8583 25.9539 36.1497 25.661 36.5134 25.4016C36.877 25.1419 37.2529 24.9616 37.641 24.8603C38.0291 24.7591 38.4047 24.7275 38.768 24.7657C39.1312 24.8042 39.4656 24.9062 39.7714 25.0718C40.0769 25.2376 40.3294 25.4578 40.5279 25.7325C40.7267 26.0075 40.8459 26.2798 40.8849 26.5493C40.9242 26.8187 40.9314 27.0607 40.9067 27.2748C40.8653 27.5245 40.7928 27.7636 40.6888 27.9925C40.9908 27.9379 41.2918 27.9313 41.5915 27.9735C41.8509 28.0085 42.1309 28.1016 42.4322 28.2529C42.7332 28.404 43.0087 28.6524 43.2585 28.9977C43.4687 29.2883 43.6041 29.6081 43.6651 29.9574C43.7259 30.3068 43.7127 30.6632 43.6248 31.0262C43.5372 31.3895 43.3724 31.7481 43.1311 32.1019C42.8895 32.4557 42.5633 32.7792 42.1524 33.0724C41.7572 33.3545 41.3611 33.5525 40.964 33.6661C40.5669 33.78 40.1815 33.8169 39.808 33.7769C39.4346 33.7371 39.0831 33.6279 38.7532 33.4494C38.4235 33.2712 38.1273 33.0376 37.8645 32.7492L39.0205 31.924C39.3279 32.2166 39.6955 32.3872 40.1234 32.436C40.5513 32.485 40.9805 32.3555 41.4113 32.0479C41.8973 31.7012 42.1874 31.317 42.2811 30.896C42.3751 30.475 42.3 30.0956 42.0558 29.7578C41.8116 29.4204 41.4742 29.2295 41.0439 29.1857C40.6134 29.1414 40.1552 29.2928 39.6692 29.6397L39.0645 30.0713L38.3192 29.041L38.8647 28.6516C39.2952 28.3444 39.55 28.0049 39.6289 27.6331C39.7074 27.2616 39.636 26.9226 39.4147 26.6165C39.1704 26.2788 38.8562 26.0866 38.4715 26.0396C38.0869 25.9927 37.6813 26.1216 37.2545 26.4259C36.8593 26.708 36.6257 27.0418 36.5535 27.4262C36.4813 27.8111 36.558 28.1968 36.7836 28.5833L35.6337 29.404Z" fill="white"/>
<path d="M53.7777 22.0544C54.0575 22.1121 54.3256 22.2139 54.5828 22.36C54.8031 22.4876 55.0234 22.6658 55.2438 22.8949C55.4638 23.124 55.6382 23.4362 55.7667 23.8319C55.8774 24.1723 55.9119 24.5182 55.8699 24.8694C55.828 25.2205 55.7165 25.5533 55.5349 25.868C55.3534 26.1828 55.1126 26.4655 54.8132 26.7165C54.5138 26.9675 54.1602 27.1581 53.7528 27.2886L50.1266 28.4513L47.2344 19.5506L50.7913 18.4103C51.143 18.2974 51.4968 18.2566 51.852 18.2872C52.2071 18.3183 52.5371 18.4095 52.8418 18.5603C53.1468 18.7116 53.4133 18.9144 53.6418 19.1688C53.8701 19.4229 54.0397 19.7203 54.1501 20.061C54.2415 20.3415 54.272 20.6046 54.242 20.8503C54.2117 21.0963 54.1637 21.3059 54.0973 21.4797C54.0182 21.6929 53.9118 21.8846 53.7777 22.0544ZM49.7749 22.7892L51.9839 22.081C52.3452 21.965 52.6095 21.7483 52.7773 21.4303C52.945 21.1127 52.9766 20.7926 52.8721 20.4707C52.7675 20.1488 52.5522 19.9078 52.2268 19.748C51.9013 19.5883 51.5602 19.5653 51.2038 19.6797L48.9945 20.3879L49.7749 22.7892ZM53.3403 26.0191C53.5487 25.9524 53.7331 25.8512 53.8937 25.7162C54.0543 25.5807 54.1801 25.4288 54.2709 25.2601C54.362 25.0911 54.418 24.9094 54.4389 24.7146C54.4602 24.52 54.4387 24.3236 54.3742 24.1259C54.3099 23.9281 54.212 23.7562 54.0803 23.6107C53.9487 23.4652 53.7963 23.3502 53.623 23.2659C53.4499 23.1818 53.2583 23.1314 53.0486 23.1148C52.8386 23.0982 52.6294 23.1235 52.4211 23.1902L50.1425 23.9208L51.0618 26.7497L53.3403 26.0191Z" fill="white"/>
<path d="M61.165 16.4042C61.572 16.366 61.9632 16.4084 62.3391 16.5308C62.7149 16.6531 63.0499 16.8353 63.3443 17.077C63.6387 17.3191 63.8815 17.6117 64.0732 17.9555C64.2648 18.299 64.3798 18.6732 64.4183 19.0771C64.4568 19.4815 64.4146 19.8714 64.2914 20.2471C64.1682 20.6228 63.9851 20.9558 63.7414 21.2456C63.4977 21.5353 63.2028 21.7768 62.857 21.9693C62.5111 22.1623 62.135 22.2777 61.7278 22.3157L59.7149 22.505L60.0385 25.9047L58.6288 26.0371L57.7422 16.7259L61.165 16.4042ZM61.6014 20.9877C61.8098 20.9682 62.003 20.9076 62.1817 20.8058C62.36 20.7043 62.5151 20.5719 62.6462 20.409C62.7773 20.2461 62.8758 20.0621 62.9419 19.8569C63.0077 19.6516 63.03 19.4359 63.0085 19.2097C62.9878 18.9932 62.9257 18.7902 62.8222 18.6009C62.7187 18.4116 62.5873 18.2503 62.428 18.1174C62.2685 17.984 62.0914 17.8817 61.8963 17.8102C61.7015 17.7388 61.4998 17.713 61.2914 17.7325L59.2783 17.9215L59.5883 21.1768L61.6014 20.9877Z" fill="white"/>
<path d="M73.4877 24.922L73.3303 26.2471L67.0234 25.5073L68.1279 16.2188L74.2899 16.9417L74.1322 18.2665L69.3768 17.7086L69.0787 20.2143L73.4572 20.7279L73.299 22.0598L68.9203 21.5463L68.5871 24.3472L73.4877 24.922Z" fill="white"/>
<path d="M83.3803 28.1533L82.2878 31.153L81.0176 30.6969L81.6534 28.9516L75.7503 26.8303L75.1145 28.5756L73.8516 28.1216L74.9441 25.1219L75.4522 25.3043C75.6504 25.2574 75.8408 25.182 76.0237 25.0781C76.1861 24.9874 76.3523 24.8682 76.5224 24.7211C76.6923 24.574 76.8452 24.371 76.9814 24.1113L79.8667 18.3633L85.1383 20.2576L82.3918 27.7979L83.3803 28.1533ZM83.3498 21.0335L80.611 20.0493L78.3197 24.5925C78.1854 24.8474 78.0463 25.0554 77.9019 25.217C77.7578 25.3787 77.6235 25.5089 77.4995 25.6083C77.3532 25.7253 77.2038 25.8158 77.0514 25.8791L81.0601 27.3196L83.3498 21.0335Z" fill="white"/>
<path d="M95.6409 26.4804L90.3974 34.249L89.2152 33.4617L91.5035 30.0713L87.902 27.6731L85.6137 31.0636L84.4375 30.2803L89.681 22.5117L90.8572 23.295L88.654 26.5592L92.2555 28.9573L94.4586 25.6931L95.6409 26.4804Z" fill="white"/>
<path d="M92.3398 35.8181L99.4343 29.668L100.365 30.7278L97.775 32.973L99.0518 34.4263C99.3206 34.7321 99.5155 35.0732 99.6363 35.4497C99.757 35.8262 99.8037 36.2027 99.7764 36.5792C99.7488 36.9559 99.6514 37.3227 99.4839 37.6797C99.3161 38.0366 99.0786 38.3488 98.7707 38.6156C98.4625 38.8827 98.1182 39.0754 97.7378 39.1935C97.3572 39.3116 96.9779 39.358 96.6004 39.3327C96.2227 39.3069 95.8535 39.2104 95.4925 39.0419C95.1315 38.8737 94.8167 38.6367 94.5478 38.3309L92.3398 35.8181ZM96.7631 33.8505L94.2829 36.0008L95.5596 37.4535C95.6971 37.6101 95.8606 37.7316 96.0496 37.8181C96.2384 37.9045 96.4377 37.9531 96.6474 37.9639C96.8571 37.9744 97.0633 37.9465 97.2661 37.8795C97.4692 37.8125 97.6585 37.7031 97.8345 37.5505C97.9996 37.4076 98.1299 37.2399 98.226 37.0477C98.3218 36.8555 98.3775 36.6562 98.3935 36.45C98.4094 36.2438 98.3887 36.0403 98.3319 35.8394C98.2748 35.6388 98.1774 35.4598 98.0399 35.3034L96.7631 33.8505ZM98.1381 42.4166L97.2022 41.3515L104.297 35.2014L105.233 36.2665L98.1381 42.4166Z" fill="white"/>
<path d="M110.048 44.753L110.762 46.1413L105.342 45.7219L102.444 50.5284L101.731 49.1398L103.911 45.5357L99.6933 45.1745L98.9766 43.7796L104.596 44.2689L107.434 39.6641L108.147 41.0524L106.037 44.4582L110.048 44.753Z" fill="white"/>
<path d="M39.5656 105.286L37.6042 107.812L36.5348 106.993L37.6759 105.524L32.7047 101.716L31.5636 103.186L30.5 102.371L32.4613 99.845L32.889 100.172C33.0923 100.188 33.2969 100.173 33.5029 100.13C33.6853 100.093 33.8801 100.03 34.0872 99.9412C34.2942 99.8526 34.5023 99.7052 34.7115 99.4991L39.2239 94.8984L43.6632 98.2987L38.7331 104.649L39.5656 105.286ZM41.7217 98.4962L39.4153 96.7297L35.8388 100.363C35.6325 100.565 35.4361 100.721 35.2493 100.831C35.0621 100.941 34.8944 101.025 34.7457 101.082C34.5705 101.149 34.4006 101.19 34.2358 101.204L37.6117 103.79L41.7217 98.4962Z" fill="white"/>
<path d="M51.4977 107.238C51.2253 107.853 50.8611 108.375 50.4054 108.804C49.9494 109.234 49.4474 109.563 48.8987 109.794C48.3501 110.024 47.7786 110.142 47.184 110.146C46.5892 110.15 46.0179 110.032 45.4701 109.793C44.9222 109.554 44.4489 109.215 44.0502 108.777C43.6513 108.339 43.3521 107.841 43.1522 107.284C42.9524 106.726 42.8576 106.136 42.868 105.512C42.8783 104.888 43.0198 104.269 43.2921 103.654C43.5605 103.048 43.9233 102.528 44.3812 102.094C44.8391 101.661 45.3424 101.329 45.8908 101.098C46.4394 100.868 47.0109 100.75 47.6058 100.746C48.2004 100.742 48.7716 100.86 49.3195 101.099C49.8673 101.338 50.3406 101.677 50.7396 102.115C51.1383 102.553 51.4377 103.051 51.6376 103.608C51.8372 104.165 51.9309 104.758 51.9187 105.386C51.9062 106.014 51.766 106.632 51.4977 107.238ZM50.2013 106.672C50.4051 106.212 50.5134 105.751 50.5264 105.289C50.5394 104.827 50.4797 104.397 50.3478 103.999C50.2159 103.601 50.0152 103.249 49.7463 102.944C49.4771 102.64 49.1645 102.409 48.8082 102.254C48.4517 102.098 48.0706 102.025 47.665 102.035C47.2589 102.045 46.8626 102.136 46.4755 102.308C46.0888 102.479 45.7289 102.725 45.396 103.044C45.0634 103.364 44.794 103.755 44.5883 104.22C44.3847 104.68 44.2766 105.14 44.2647 105.599C44.2528 106.059 44.3138 106.488 44.4481 106.887C44.5824 107.287 44.7823 107.639 45.0483 107.945C45.314 108.252 45.6251 108.483 45.9813 108.638C46.3378 108.794 46.7205 108.866 47.1296 108.855C47.5386 108.843 47.9355 108.751 48.3204 108.579C48.705 108.406 49.0638 108.16 49.3964 107.841C49.7293 107.522 49.9974 107.132 50.2013 106.672Z" fill="white"/>
<path d="M58.3624 107.674C58.7648 107.745 59.125 107.879 59.443 108.075C59.761 108.272 60.0235 108.518 60.2297 108.812C60.4363 109.107 60.5772 109.436 60.6523 109.801C60.7274 110.165 60.729 110.547 60.6571 110.947C60.5852 111.346 60.4501 111.704 60.2523 112.02C60.0546 112.336 59.8072 112.596 59.5107 112.802C59.2142 113.007 58.8824 113.146 58.5155 113.221C58.1487 113.296 57.7641 113.298 57.3617 113.226L53.5391 112.546L55.1983 103.34L61.1551 104.399L60.9183 105.712L56.3556 104.901L55.9339 107.242L58.3624 107.674ZM55.6971 108.555L55.1697 111.481L57.5982 111.913C58.0101 111.986 58.3709 111.912 58.6806 111.689C58.9899 111.467 59.1842 111.137 59.2633 110.699C59.3421 110.261 59.2752 109.885 59.0626 109.569C58.85 109.254 58.5376 109.06 58.1256 108.987L55.6971 108.555Z" fill="white"/>
<path d="M64.4525 113.908L62.957 113.963L66.1994 104.485L67.3886 104.441L71.324 113.657L69.8285 113.711L68.9244 111.59L65.1896 111.726L64.4525 113.908ZM68.3571 110.276L66.8701 106.615L65.6653 110.374L68.3571 110.276Z" fill="white"/>
<path d="M78.6898 106.884C78.9654 106.958 79.2274 107.075 79.4755 107.236C79.6879 107.376 79.8973 107.567 80.1038 107.808C80.3101 108.05 80.4656 108.372 80.5708 108.774C80.6613 109.121 80.6751 109.467 80.6127 109.815C80.5503 110.164 80.4192 110.49 80.2196 110.793C80.0197 111.097 79.763 111.365 79.4495 111.598C79.1358 111.832 78.7716 112.002 78.3572 112.108L74.6687 113.058L72.3047 104.005L75.9224 103.073C76.2804 102.981 76.6359 102.961 76.9886 103.012C77.3414 103.063 77.6655 103.173 77.9609 103.342C78.2561 103.511 78.5104 103.728 78.7236 103.996C78.9367 104.263 79.0883 104.569 79.1788 104.916C79.2534 105.201 79.2682 105.466 79.2239 105.709C79.1793 105.953 79.1188 106.159 79.0426 106.329C78.951 106.537 78.8334 106.722 78.6898 106.884ZM74.6504 107.386L76.8973 106.807C77.2647 106.712 77.5416 106.511 77.7276 106.204C77.9137 105.896 77.9641 105.578 77.8787 105.251C77.7932 104.923 77.5925 104.67 77.2769 104.492C76.9616 104.314 76.6223 104.271 76.2597 104.364L74.0128 104.943L74.6504 107.386ZM78.0199 110.817C78.232 110.763 78.422 110.672 78.5903 110.546C78.7586 110.421 78.8932 110.276 78.9938 110.113C79.0944 109.95 79.161 109.772 79.1934 109.578C79.226 109.385 79.2159 109.188 79.1634 108.987C79.1108 108.786 79.0232 108.609 78.9003 108.456C78.7772 108.302 78.632 108.179 78.464 108.085C78.2962 107.991 78.108 107.929 77.8994 107.901C77.6907 107.872 77.4805 107.885 77.2687 107.939L74.9509 108.537L75.7023 111.414L78.0199 110.817Z" fill="white"/>
<path d="M90.1671 101.859C90.4867 102.451 90.6759 103.058 90.7351 103.679C90.794 104.3 90.7457 104.896 90.5899 105.467C90.4344 106.038 90.1748 106.558 89.8114 107.025C89.448 107.493 89.0026 107.867 88.4752 108.148C87.9475 108.429 87.3871 108.59 86.7939 108.631C86.2006 108.673 85.6217 108.6 85.0568 108.412C84.492 108.225 83.9656 107.935 83.4775 107.542C82.9896 107.149 82.5858 106.657 82.2662 106.065C81.9514 105.481 81.7632 104.876 81.7019 104.251C81.6403 103.626 81.6876 103.028 81.8434 102.457C81.9992 101.885 82.2585 101.366 82.6219 100.899C82.9853 100.431 83.4307 100.057 83.9584 99.776C84.4859 99.4952 85.0462 99.3342 85.6395 99.2925C86.2327 99.2511 86.8116 99.3239 87.3765 99.5113C87.9416 99.6988 88.469 99.9909 88.9593 100.388C89.4496 100.785 89.8523 101.275 90.1671 101.859ZM88.919 102.523C88.6798 102.081 88.3815 101.711 88.0236 101.417C87.6658 101.122 87.2884 100.903 86.8913 100.761C86.4942 100.618 86.0918 100.558 85.6843 100.581C85.2769 100.603 84.9013 100.705 84.5583 100.888C84.2151 101.071 83.9223 101.324 83.6802 101.647C83.4379 101.971 83.2654 102.337 83.1629 102.745C83.0602 103.154 83.0328 103.587 83.0806 104.044C83.1284 104.501 83.2731 104.953 83.5143 105.4C83.7535 105.843 84.0513 106.211 84.4081 106.504C84.7648 106.797 85.1428 107.013 85.5418 107.155C85.941 107.296 86.3439 107.357 86.7506 107.338C87.157 107.319 87.532 107.219 87.8753 107.036C88.2182 106.853 88.5115 106.598 88.7547 106.271C88.9978 105.945 89.1698 105.578 89.2704 105.17C89.3707 104.763 89.3973 104.331 89.3492 103.874C89.3015 103.417 89.1581 102.967 88.919 102.523Z" fill="white"/>
<path d="M99.4487 100.184L93.7314 99.3424L96.6403 102.633L95.5762 103.561L89.3633 96.533L90.4274 95.605L93.2883 98.8412L93.011 93.3519L94.3052 92.2227L94.495 98.1842L100.743 99.0548L99.4487 100.184Z" fill="white"/>
</svg>
